{
  "asset": {
    "generator": "glTF-Transform v4.2.1",
    "version": "2.0",
    "extras": {
      "author": "Lapworth Museum of Geology (https://sketchfab.com/LapworthMuseum)",
      "license": "CC-BY-NC-4.0 (http://creativecommons.org/licenses/by-nc/4.0/)",
      "source": "https://sketchfab.com/3d-models/chalcedony-with-cassiterite-birug-24-71d1fb83b28c4048b15455ea395c19b2",
      "title": "Chalcedony with cassiterite BIRUG 24"
    }
  },
  "accessors": [
    {
      "type": "SCALAR",
      "componentType": 5125,
      "count": 2830767,
      "bufferView": 0,
      "byteOffset": 0
    },
    {
      "type": "VEC3",
      "componentType": 5126,
      "count": 498706,
      "bufferView": 1,
      "byteOffset": 0
    },
    {
      "type": "VEC3",
      "componentType": 5126,
      "count": 498706,
      "max": [
        0.9456770420074463,
        1,
        0.9580065011978149
      ],
      "min": [
        -0.9456770420074463,
        -1,
        -0.9580065011978149
      ],
      "bufferView": 1,
      "byteOffset": 12
    },
    {
      "type": "VEC2",
      "componentType": 5126,
      "count": 498706,
      "bufferView": 1,
      "byteOffset": 24
    }
  ],
  "bufferViews": [
    {
      "buffer": 0,
      "byteOffset": 0,
      "byteLength": 11323068,
      "target": 34963
    },
    {
      "buffer": 0,
      "byteOffset": 11323068,
      "byteLength": 15958592,
      "byteStride": 32,
      "target": 34962
    }
  ],
  "samplers": [
    {
      "magFilter": 9729,
      "minFilter": 9987,
      "wrapS": 10497,
      "wrapT": 10497
    }
  ],
  "textures": [
    {
      "sampler": 0,
      "extensions": {
        "EXT_texture_webp": {
          "source": 0
        }
      }
    }
  ],
  "images": [
    {
      "mimeType": "image/webp",
      "uri": "baseColor.webp"
    }
  ],
  "buffers": [
    {
      "uri": "steinbock-onyx.bin",
      "byteLength": 27281660
    }
  ],
  "materials": [
    {
      "name": "material_0",
      "doubleSided": true,
      "pbrMetallicRoughness": {
        "roughnessFactor": 0.6785442073170732,
        "metallicFactor": 0,
        "baseColorTexture": {
          "index": 0
        }
      }
    }
  ],
  "meshes": [
    {
      "name": "Object_0",
      "primitives": [
        {
          "attributes": {
            "NORMAL": 1,
            "POSITION": 2,
            "TEXCOORD_0": 3
          },
          "mode": 4,
          "material": 0,
          "indices": 0
        }
      ]
    }
  ],
  "nodes": [
    {
      "name": "Object_2",
      "translation": [
        -2.8038621202585703,
        8.366390801577676,
        -19.26575087635914
      ],
      "rotation": [
        0.3453886506263042,
        0.25543454041277874,
        0.342848910021279,
        0.8354127725144718
      ],
      "scale": [
        0.47587935977992485,
        0.47587934856046893,
        0.47587936935120395
      ],
      "mesh": 0
    }
  ],
  "scenes": [
    {
      "name": "Sketchfab_Scene",
      "nodes": [
        0
      ]
    }
  ],
  "scene": 0,
  "extensionsUsed": [
    "EXT_texture_webp"
  ],
  "extensionsRequired": [
    "EXT_texture_webp"
  ]
}