{
  "asset": {
    "generator": "glTF-Transform v4.2.1",
    "version": "2.0"
  },
  "accessors": [
    {
      "type": "SCALAR",
      "componentType": 5123,
      "count": 134043,
      "bufferView": 0,
      "byteOffset": 0
    },
    {
      "type": "VEC3",
      "componentType": 5126,
      "count": 28667,
      "max": [
        0.8308053612709045,
        1,
        0.9790032505989075
      ],
      "min": [
        -0.8308053612709045,
        -1,
        -0.9790032505989075
      ],
      "bufferView": 1,
      "byteOffset": 0
    },
    {
      "type": "VEC2",
      "componentType": 5126,
      "count": 28667,
      "bufferView": 1,
      "byteOffset": 12
    }
  ],
  "bufferViews": [
    {
      "buffer": 0,
      "byteOffset": 0,
      "byteLength": 268088,
      "target": 34963
    },
    {
      "buffer": 0,
      "byteOffset": 268088,
      "byteLength": 573340,
      "byteStride": 20,
      "target": 34962
    }
  ],
  "samplers": [
    {
      "wrapS": 10497,
      "wrapT": 10497
    }
  ],
  "textures": [
    {
      "sampler": 0,
      "extensions": {
        "EXT_texture_webp": {
          "source": 0
        }
      }
    }
  ],
  "images": [
    {
      "name": "ce0a90b9864e97d2ca7935f9b5b075e7",
      "mimeType": "image/webp",
      "uri": "baseColor.webp"
    }
  ],
  "buffers": [
    {
      "uri": "zwilling-citrine-crystal.bin",
      "byteLength": 841428
    }
  ],
  "materials": [
    {
      "pbrMetallicRoughness": {
        "metallicFactor": 0,
        "baseColorTexture": {
          "index": 0
        }
      }
    }
  ],
  "meshes": [
    {
      "primitives": [
        {
          "attributes": {
            "POSITION": 1,
            "TEXCOORD_0": 2
          },
          "mode": 4,
          "material": 0,
          "indices": 0
        }
      ]
    }
  ],
  "nodes": [
    {
      "translation": [
        -0.00802462175488472,
        0.006734497845172882,
        0.0628186862450093
      ],
      "scale": [
        0.05841871351003647,
        0.05841871351003647,
        0.05841871351003647
      ],
      "mesh": 0
    }
  ],
  "scenes": [
    {
      "nodes": [
        0
      ]
    }
  ],
  "scene": 0,
  "extensionsUsed": [
    "EXT_texture_webp"
  ],
  "extensionsRequired": [
    "EXT_texture_webp"
  ]
}