{
  "asset": {
    "generator": "glTF-Transform v4.2.1",
    "version": "2.0",
    "extras": {
      "author": "Ecole Nationale Supérieure de Géologie (https://sketchfab.com/ENSGeologie)",
      "license": "CC-BY-NC-SA-4.0 (http://creativecommons.org/licenses/by-nc-sa/4.0/)",
      "source": "https://sketchfab.com/3d-models/beryl-avec-sanidine-et-quartz-b94ed39d5c204fb08f3850cc575b9399",
      "title": "Béryl avec sanidine et quartz"
    }
  },
  "accessors": [
    {
      "type": "SCALAR",
      "componentType": 5123,
      "count": 255681,
      "bufferView": 0,
      "byteOffset": 0
    },
    {
      "type": "SCALAR",
      "componentType": 5123,
      "count": 226812,
      "bufferView": 0,
      "byteOffset": 511364
    },
    {
      "type": "SCALAR",
      "componentType": 5123,
      "count": 271275,
      "bufferView": 0,
      "byteOffset": 964988
    },
    {
      "type": "VEC3",
      "componentType": 5126,
      "count": 44031,
      "max": [
        1,
        0.7807550430297852,
        0.7768486738204956
      ],
      "min": [
        -1,
        -0.7807550430297852,
        -0.7768486738204956
      ],
      "bufferView": 1,
      "byteOffset": 0
    },
    {
      "type": "VEC2",
      "componentType": 5126,
      "count": 44031,
      "bufferView": 1,
      "byteOffset": 12
    },
    {
      "type": "VEC3",
      "componentType": 5126,
      "count": 39102,
      "max": [
        1,
        0.8757286071777344,
        0.7779473066329956
      ],
      "min": [
        -1,
        -0.8757286071777344,
        -0.7779473066329956
      ],
      "bufferView": 2,
      "byteOffset": 0
    },
    {
      "type": "VEC2",
      "componentType": 5126,
      "count": 39102,
      "bufferView": 2,
      "byteOffset": 12
    },
    {
      "type": "VEC3",
      "componentType": 5126,
      "count": 46599,
      "max": [
        1,
        0.69539475440979,
        0.6635334491729736
      ],
      "min": [
        -1,
        -0.69539475440979,
        -0.6635334491729736
      ],
      "bufferView": 3,
      "byteOffset": 0
    },
    {
      "type": "VEC2",
      "componentType": 5126,
      "count": 46599,
      "bufferView": 3,
      "byteOffset": 12
    }
  ],
  "bufferViews": [
    {
      "buffer": 0,
      "byteOffset": 0,
      "byteLength": 1507540,
      "target": 34963
    },
    {
      "buffer": 0,
      "byteOffset": 1507540,
      "byteLength": 880620,
      "byteStride": 20,
      "target": 34962
    },
    {
      "buffer": 0,
      "byteOffset": 2388160,
      "byteLength": 782040,
      "byteStride": 20,
      "target": 34962
    },
    {
      "buffer": 0,
      "byteOffset": 3170200,
      "byteLength": 931980,
      "byteStride": 20,
      "target": 34962
    }
  ],
  "samplers": [
    {
      "magFilter": 9729,
      "minFilter": 9987,
      "wrapS": 10497,
      "wrapT": 10497
    }
  ],
  "textures": [
    {
      "sampler": 0,
      "extensions": {
        "EXT_texture_webp": {
          "source": 0
        }
      }
    },
    {
      "sampler": 0,
      "extensions": {
        "EXT_texture_webp": {
          "source": 1
        }
      }
    },
    {
      "sampler": 0,
      "extensions": {
        "EXT_texture_webp": {
          "source": 2
        }
      }
    }
  ],
  "images": [
    {
      "mimeType": "image/webp",
      "uri": "baseColor_1.webp"
    },
    {
      "mimeType": "image/webp",
      "uri": "baseColor_2.webp"
    },
    {
      "mimeType": "image/webp",
      "uri": "baseColor_3.webp"
    }
  ],
  "buffers": [
    {
      "uri": "fische-aquamarine.bin",
      "byteLength": 4102180
    }
  ],
  "materials": [
    {
      "name": "material2",
      "doubleSided": true,
      "pbrMetallicRoughness": {
        "metallicFactor": 0,
        "baseColorTexture": {
          "index": 0
        }
      },
      "extensions": {
        "KHR_materials_unlit": {}
      }
    },
    {
      "name": "material1",
      "doubleSided": true,
      "pbrMetallicRoughness": {
        "metallicFactor": 0,
        "baseColorTexture": {
          "index": 1
        }
      },
      "extensions": {
        "KHR_materials_unlit": {}
      }
    },
    {
      "name": "material0",
      "doubleSided": true,
      "pbrMetallicRoughness": {
        "metallicFactor": 0,
        "baseColorTexture": {
          "index": 2
        }
      },
      "extensions": {
        "KHR_materials_unlit": {}
      }
    }
  ],
  "meshes": [
    {
      "name": "Model_material2_0",
      "primitives": [
        {
          "attributes": {
            "POSITION": 3,
            "TEXCOORD_0": 4
          },
          "mode": 4,
          "material": 0,
          "indices": 0
        }
      ]
    },
    {
      "name": "Model_material1_0",
      "primitives": [
        {
          "attributes": {
            "POSITION": 5,
            "TEXCOORD_0": 6
          },
          "mode": 4,
          "material": 1,
          "indices": 1
        }
      ]
    },
    {
      "name": "Model_material0_0",
      "primitives": [
        {
          "attributes": {
            "POSITION": 7,
            "TEXCOORD_0": 8
          },
          "mode": 4,
          "material": 2,
          "indices": 2
        }
      ]
    }
  ],
  "nodes": [
    {
      "name": "Model_material2_0",
      "translation": [
        -0.036258426777145636,
        -0.005542174283622562,
        -0.03727039398039905
      ],
      "rotation": [
        0.8714829494606156,
        -0.45249457309002145,
        0.08231465699779493,
        0.17026575512075479
      ],
      "scale": [
        0.5771269499467292,
        0.5771269493268905,
        0.5771269542867413
      ],
      "mesh": 0
    },
    {
      "name": "Model_material1_0",
      "translation": [
        -0.04697055100004229,
        -0.00031633002716304967,
        -0.03826143437850794
      ],
      "rotation": [
        0.8714829494606156,
        -0.45249457309002145,
        0.08231465699779496,
        0.17026575512075479
      ],
      "scale": [
        0.520476713705497,
        0.520476713146501,
        0.5204767176194977
      ],
      "mesh": 1
    },
    {
      "name": "Model_material0_0",
      "translation": [
        -0.07405026987010317,
        -0.06705945357629037,
        0.009566598832245067
      ],
      "rotation": [
        0.8714829494606156,
        -0.45249457309002145,
        0.08231465699779496,
        0.17026575512075479
      ],
      "scale": [
        0.6123147009966867,
        0.6123147003390561,
        0.6123147056013118
      ],
      "mesh": 2
    }
  ],
  "scenes": [
    {
      "name": "Sketchfab_Scene",
      "nodes": [
        0,
        1,
        2
      ]
    }
  ],
  "scene": 0,
  "extensionsUsed": [
    "EXT_texture_webp",
    "KHR_materials_unlit"
  ],
  "extensionsRequired": [
    "EXT_texture_webp"
  ]
}