{
  "asset": {
    "generator": "glTF-Transform v4.2.1",
    "version": "2.0",
    "extras": {
      "author": "University Libraries at Virginia Tech (https://sketchfab.com/VirginiaTechUnivLibraries)",
      "license": "CC-BY-4.0 (http://creativecommons.org/licenses/by/4.0/)",
      "source": "https://sketchfab.com/3d-models/amethyst-geode-cd3b0da1423b430b8076a92089fa1d2d",
      "title": "Amethyst Geode"
    }
  },
  "accessors": [
    {
      "type": "SCALAR",
      "componentType": 5125,
      "count": 859590,
      "bufferView": 0,
      "byteOffset": 0
    },
    {
      "type": "VEC3",
      "componentType": 5126,
      "count": 147356,
      "max": [
        1,
        0.7149266004562378,
        0.7850276231765747
      ],
      "min": [
        -1,
        -0.7149266004562378,
        -0.7850276231765747
      ],
      "bufferView": 1,
      "byteOffset": 0
    },
    {
      "type": "VEC2",
      "componentType": 5126,
      "count": 147356,
      "bufferView": 1,
      "byteOffset": 12
    }
  ],
  "bufferViews": [
    {
      "buffer": 0,
      "byteOffset": 0,
      "byteLength": 3438360,
      "target": 34963
    },
    {
      "buffer": 0,
      "byteOffset": 3438360,
      "byteLength": 2947120,
      "byteStride": 20,
      "target": 34962
    }
  ],
  "samplers": [
    {
      "magFilter": 9729,
      "minFilter": 9987,
      "wrapS": 10497,
      "wrapT": 10497
    }
  ],
  "textures": [
    {
      "sampler": 0,
      "extensions": {
        "EXT_texture_webp": {
          "source": 0
        }
      }
    }
  ],
  "images": [
    {
      "mimeType": "image/webp",
      "uri": "baseColor.webp"
    }
  ],
  "buffers": [
    {
      "uri": "wassermann-amethyst.bin",
      "byteLength": 6385480
    }
  ],
  "materials": [
    {
      "name": "LargeAmethyst",
      "pbrMetallicRoughness": {
        "metallicFactor": 0,
        "baseColorTexture": {
          "index": 0
        }
      },
      "extensions": {
        "KHR_materials_unlit": {}
      }
    }
  ],
  "meshes": [
    {
      "name": "Object_0",
      "primitives": [
        {
          "attributes": {
            "POSITION": 1,
            "TEXCOORD_0": 2
          },
          "mode": 4,
          "material": 0,
          "indices": 0
        }
      ]
    }
  ],
  "nodes": [
    {
      "name": "Object_2",
      "translation": [
        -0.2598716115232673,
        0.06710626128594921,
        -7.184162742804273
      ],
      "rotation": [
        0.407903221976559,
        0.1672413048566697,
        -0.08271039084522797,
        0.8937585237060441
      ],
      "scale": [
        0.8904400183151134,
        0.8904399989990835,
        0.890440035085346
      ],
      "mesh": 0
    }
  ],
  "scenes": [
    {
      "name": "Sketchfab_Scene",
      "nodes": [
        0
      ]
    }
  ],
  "scene": 0,
  "extensionsUsed": [
    "EXT_texture_webp",
    "KHR_materials_unlit"
  ],
  "extensionsRequired": [
    "EXT_texture_webp"
  ]
}