{
  "asset": {
    "generator": "glTF-Transform v4.2.1",
    "version": "2.0",
    "extras": {
      "author": "shinjou (https://sketchfab.com/shinjou)",
      "license": "CC-BY-4.0 (http://creativecommons.org/licenses/by/4.0/)",
      "source": "https://sketchfab.com/3d-models/obsidian-c91a60c2ef2d4e28aa280c9df2afed9b",
      "title": "Obsidian"
    }
  },
  "accessors": [
    {
      "type": "SCALAR",
      "componentType": 5123,
      "count": 2022,
      "bufferView": 0,
      "byteOffset": 0
    },
    {
      "type": "VEC3",
      "componentType": 5126,
      "count": 374,
      "bufferView": 1,
      "byteOffset": 0
    },
    {
      "type": "VEC4",
      "componentType": 5126,
      "count": 374,
      "bufferView": 1,
      "byteOffset": 12
    },
    {
      "type": "VEC3",
      "componentType": 5126,
      "count": 374,
      "max": [
        1,
        0.635334312915802,
        0.4360789954662323
      ],
      "min": [
        -1,
        -0.635334312915802,
        -0.4360789954662323
      ],
      "bufferView": 1,
      "byteOffset": 28
    },
    {
      "type": "VEC2",
      "componentType": 5126,
      "count": 374,
      "bufferView": 1,
      "byteOffset": 40
    }
  ],
  "bufferViews": [
    {
      "buffer": 0,
      "byteOffset": 0,
      "byteLength": 4044,
      "target": 34963
    },
    {
      "buffer": 0,
      "byteOffset": 4044,
      "byteLength": 17952,
      "byteStride": 48,
      "target": 34962
    }
  ],
  "samplers": [
    {
      "magFilter": 9729,
      "minFilter": 9729,
      "wrapS": 10497,
      "wrapT": 10497
    },
    {
      "magFilter": 9728,
      "minFilter": 9986,
      "wrapS": 10497,
      "wrapT": 10497
    },
    {
      "magFilter": 9729,
      "minFilter": 9987,
      "wrapS": 10497,
      "wrapT": 10497
    }
  ],
  "textures": [
    {
      "sampler": 0,
      "extensions": {
        "EXT_texture_webp": {
          "source": 0
        }
      }
    },
    {
      "sampler": 1,
      "extensions": {
        "EXT_texture_webp": {
          "source": 2
        }
      }
    },
    {
      "sampler": 2,
      "extensions": {
        "EXT_texture_webp": {
          "source": 3
        }
      }
    },
    {
      "sampler": 2,
      "extensions": {
        "EXT_texture_webp": {
          "source": 1
        }
      }
    }
  ],
  "images": [
    {
      "mimeType": "image/webp",
      "uri": "baseColor_1.webp"
    },
    {
      "mimeType": "image/webp",
      "uri": "metallicRoughness_1.webp"
    },
    {
      "mimeType": "image/webp",
      "uri": "emissive_1.webp"
    },
    {
      "mimeType": "image/webp",
      "uri": "normal_1.webp"
    }
  ],
  "buffers": [
    {
      "uri": "skorpion-obsidian.bin",
      "byteLength": 21996
    }
  ],
  "materials": [
    {
      "name": "material_0",
      "pbrMetallicRoughness": {
        "baseColorFactor": [
          0.08990503590106179,
          0.08990503590106179,
          0.08990503590106179,
          1
        ],
        "metallicFactor": 0,
        "baseColorTexture": {
          "index": 0
        },
        "metallicRoughnessTexture": {
          "index": 3
        }
      },
      "emissiveFactor": [
        0.5333349587351123,
        0.5333349587351123,
        0.5333349587351123
      ],
      "emissiveTexture": {
        "index": 1
      },
      "normalTexture": {
        "index": 2
      },
      "extensions": {
        "KHR_materials_specular": {
          "specularFactor": 0.5836208262729943
        }
      }
    }
  ],
  "meshes": [
    {
      "name": "Object_0",
      "primitives": [
        {
          "attributes": {
            "NORMAL": 1,
            "TANGENT": 2,
            "POSITION": 3,
            "TEXCOORD_0": 4
          },
          "mode": 4,
          "material": 0,
          "indices": 0
        }
      ]
    }
  ],
  "nodes": [
    {
      "name": "Object_2",
      "translation": [
        -3.882137894630432,
        1.2387730181217194,
        -0.020475983619689667
      ],
      "rotation": [
        -0.7071067811865475,
        0,
        0,
        0.7071067811865476
      ],
      "scale": [
        0.9851258993148804,
        0.9851258993148804,
        0.9851258993148804
      ],
      "mesh": 0
    }
  ],
  "scenes": [
    {
      "name": "Sketchfab_Scene",
      "nodes": [
        0
      ]
    }
  ],
  "scene": 0,
  "extensionsUsed": [
    "EXT_texture_webp",
    "KHR_materials_specular"
  ],
  "extensionsRequired": [
    "EXT_texture_webp"
  ]
}