{
  "asset": {
    "generator": "glTF-Transform v4.2.1",
    "version": "2.0"
  },
  "accessors": [
    {
      "type": "SCALAR",
      "componentType": 5123,
      "count": 147744,
      "bufferView": 0,
      "byteOffset": 0
    },
    {
      "type": "VEC3",
      "componentType": 5126,
      "count": 26343,
      "max": [
        1,
        0.5111850500106812,
        0.9022186994552612
      ],
      "min": [
        -1,
        -0.5111850500106812,
        -0.9022186994552612
      ],
      "bufferView": 1,
      "byteOffset": 0
    },
    {
      "type": "VEC2",
      "componentType": 5126,
      "count": 26343,
      "bufferView": 1,
      "byteOffset": 12
    }
  ],
  "bufferViews": [
    {
      "buffer": 0,
      "byteOffset": 0,
      "byteLength": 295488,
      "target": 34963
    },
    {
      "buffer": 0,
      "byteOffset": 295488,
      "byteLength": 526860,
      "byteStride": 20,
      "target": 34962
    }
  ],
  "samplers": [
    {
      "wrapS": 10497,
      "wrapT": 10497
    }
  ],
  "textures": [
    {
      "sampler": 0,
      "extensions": {
        "EXT_texture_webp": {
          "source": 2
        }
      }
    },
    {
      "sampler": 0,
      "extensions": {
        "EXT_texture_webp": {
          "source": 0
        }
      }
    },
    {
      "sampler": 0,
      "extensions": {
        "EXT_texture_webp": {
          "source": 1
        }
      }
    }
  ],
  "images": [
    {
      "name": "a909b60a7b745e0f4d6acdcb168017fa",
      "mimeType": "image/webp",
      "uri": "normal_1.webp"
    },
    {
      "name": "aa8e643fd9d711a570839c645a164950",
      "mimeType": "image/webp",
      "uri": "occlusion_1.webp"
    },
    {
      "name": "5d75663a961b59278a14d50154398f4c",
      "mimeType": "image/webp",
      "uri": "baseColor_1.webp"
    }
  ],
  "buffers": [
    {
      "uri": "waage-lapislazuli.bin",
      "byteLength": 822348
    }
  ],
  "materials": [
    {
      "pbrMetallicRoughness": {
        "metallicFactor": 0,
        "baseColorTexture": {
          "index": 0
        }
      },
      "normalTexture": {
        "index": 1
      },
      "occlusionTexture": {
        "index": 2
      }
    }
  ],
  "meshes": [
    {
      "primitives": [
        {
          "attributes": {
            "POSITION": 1,
            "TEXCOORD_0": 2
          },
          "mode": 4,
          "material": 0,
          "indices": 0
        }
      ]
    }
  ],
  "nodes": [
    {
      "translation": [
        0,
        0.17196083813905716,
        0
      ],
      "scale": [
        0.04575231671333313,
        0.04575231671333313,
        0.04575231671333313
      ],
      "mesh": 0
    }
  ],
  "scenes": [
    {
      "nodes": [
        0
      ]
    }
  ],
  "scene": 0,
  "extensionsUsed": [
    "EXT_texture_webp"
  ],
  "extensionsRequired": [
    "EXT_texture_webp"
  ]
}