{
  "asset": {
    "generator": "glTF-Transform v4.2.1",
    "version": "2.0",
    "extras": {
      "author": "MGRRE (https://sketchfab.com/MGRRE)",
      "license": "CC-BY-4.0 (http://creativecommons.org/licenses/by/4.0/)",
      "source": "https://sketchfab.com/3d-models/adularia-5427c667234e44d48cf79c0fedc97bc0",
      "title": "Adularia"
    }
  },
  "accessors": [
    {
      "type": "SCALAR",
      "componentType": 5125,
      "count": 4004400,
      "bufferView": 0,
      "byteOffset": 0
    },
    {
      "type": "VEC3",
      "componentType": 5126,
      "count": 777838,
      "bufferView": 1,
      "byteOffset": 0
    },
    {
      "type": "VEC3",
      "componentType": 5126,
      "count": 777838,
      "max": [
        1,
        0.5463423728942871,
        0.40702536702156067
      ],
      "min": [
        -1,
        -0.5463423728942871,
        -0.40702536702156067
      ],
      "bufferView": 1,
      "byteOffset": 12
    },
    {
      "type": "VEC2",
      "componentType": 5126,
      "count": 777838,
      "bufferView": 1,
      "byteOffset": 24
    }
  ],
  "bufferViews": [
    {
      "buffer": 0,
      "byteOffset": 0,
      "byteLength": 16017600,
      "target": 34963
    },
    {
      "buffer": 0,
      "byteOffset": 16017600,
      "byteLength": 24890816,
      "byteStride": 32,
      "target": 34962
    }
  ],
  "samplers": [
    {
      "magFilter": 9729,
      "minFilter": 9987,
      "wrapS": 33071,
      "wrapT": 33071
    }
  ],
  "textures": [
    {
      "sampler": 0,
      "extensions": {
        "EXT_texture_webp": {
          "source": 0
        }
      }
    }
  ],
  "images": [
    {
      "mimeType": "image/webp",
      "uri": "baseColor.webp"
    }
  ],
  "buffers": [
    {
      "uri": "krebs-adularia.bin",
      "byteLength": 40908416
    }
  ],
  "materials": [
    {
      "name": "material_0",
      "doubleSided": true,
      "pbrMetallicRoughness": {
        "roughnessFactor": 0.6,
        "metallicFactor": 0,
        "baseColorTexture": {
          "index": 0
        }
      }
    }
  ],
  "meshes": [
    {
      "name": "Object_0",
      "primitives": [
        {
          "attributes": {
            "NORMAL": 1,
            "POSITION": 2,
            "TEXCOORD_0": 3
          },
          "mode": 4,
          "material": 0,
          "indices": 0
        }
      ]
    }
  ],
  "nodes": [
    {
      "name": "Object_2",
      "translation": [
        0.0057506561279296875,
        -11.924341941761211,
        -3.727155547456725
      ],
      "rotation": [
        0.8057087670469035,
        0,
        0,
        0.5923118964732672
      ],
      "scale": [
        30.69745445251465,
        30.69745373655505,
        30.69745373655505
      ],
      "mesh": 0
    }
  ],
  "scenes": [
    {
      "name": "Sketchfab_Scene",
      "nodes": [
        0
      ]
    }
  ],
  "scene": 0,
  "extensionsUsed": [
    "EXT_texture_webp"
  ],
  "extensionsRequired": [
    "EXT_texture_webp"
  ]
}