<?xml version="1.0" encoding="UTF-8"?>
<svg fill="currentColor" id="Ebene_2" data-name="Ebene 2" xmlns="http://www.w3.org/2000/svg" viewBox="0 0 1040.82 1623.67">
  <g id="Ebene_2-2" data-name="Ebene 2">
    <g>
      <path d="M1035.2,0l5.62,1605.13-9.84,9.35c-68.51,14.24-138.25,2.78-206.86,3.28-161.74,1.18-317.72-.77-478.8,0-52.46.25-310.48,14.34-337.31-1.86-4.85-2.93-6.57-7.44-8.01-12.47L3.66,0h1031.54ZM144.03,12.52H26.51l-6.6,12.53c9.29,12.46,54.15,4.05,72,6.24,9.01,1.11,20.42,4.65,9.64,12.5l-84.87.06,3.94,19.38,22.19,5.73-26.14,12.45c-6.64,11.62,20.18,48.16,26.08,43.79-3.12-11.79,27.67-51.59,39.13-43.78l23.09,50.17c48.94-12.43,46.23-66.27,46.16-106.3-.01-7.32-.46-8.11-7.11-12.79ZM95.07,1602.87h848.73c1.17-132.5-1.45-265.26-.28-397.84,1.89-214.04,5.56-429.97,7.08-644.39.49-69.8,8.59-179.77.02-244.77-3.04-23.04-42.98-87.41-53.33-124.11-16.51-58.56-20.53-118.97-25.27-179.26l-699.01,2.77c-10.06,47.13-12.43,97.63-23.63,146.39-12.49,54.39-33.29,97.21-54.46,148.13-5.72,398.57,8.06,797.85.47,1196.34-.63,33.11-14.11,61.78-.31,96.75ZM1022.14,12.52h-130.57c.52,48.59-10.34,99.43,42.44,125.1l26.2-56.2,39.07,43.68c36.53-26.94,19.22-74.07,22.86-112.58ZM81.97,112.67c-43.58-1.23-32.74,47.1-26.01,75.16,34.86-18.69,33.58-41.69,26.01-75.16ZM976.35,112.72c-23.15-16.53-31.84,70.49,6.56,75.11,6.24-30.02,7.94-47.1-6.56-75.11ZM42.86,231.69c.73-17.17.48-33.46-2.93-50.48-2.8-13.98-9.5-41.81-23.14-49.7,7.91,37.47-19.72,104.32,19.4,122.06-17.95,10.09-23.27,12.13-19.5,34.41,17.42-1.84,39.12,3.05,55.58.07,32.96-5.97,52.32-113.22,68.32-140.99-1.09-24.41-38.4,18.65-41.71,22.5-14.52,16.9-24.96,44.73-35.99,58.17-6.01,7.32-12.31,3.29-20.02,3.95ZM1022.14,288.02v-156.53c-9.59,1.03-15.51,22.46-17.71,29.98-4.78,16.37-7.46,65.31-18.3,70.13l-52.06-68.88c-7.18-5.11-19.21-26.21-29.54-15.5,6.39,28.77,33.26,135.64,62.08,140.82,16.54,2.97,38.09-1.94,55.53-.03ZM75.51,344.39l-6.35-41.27-52.43-2.59-.05,43.87h58.82ZM1022.18,300.51l-52.68,2.76-6.14,41.13h58.82s0-43.88,0-43.88ZM75.48,363.15l-58.79.03.04,18.74c26.81-6.77,31.64,24.03,0,18.82v18.75c47.6.17,1.32,17.68-.16,21.93-8.44,24.2,19.83,11.48,19.81,18.85-.03,14.79-17.7,12.65-19.81,18.72-8.44,24.2,19.83,11.48,19.81,18.85-.03,12.94-49.07,28.24-.03,37.57l-19.59,27.99,19.62,15.7c-45.92,23.47,1.1,20.03,0,37.57l-19.66,3.21c-9.22,22.66,20.59,18.91,19.66,34.36l-19.66,3.21.13,18.51,25.85,9.65c-59.57,25.61-6.31,28.63-6.32,31.37-.04,15.05-17.43,11.9-19.81,18.72-8.44,24.2,19.83,11.48,19.81,18.85-.02,10.41-49.59,34.2-.07,34.4l-19.66,28.09,19.73,18.78c-45.68,23.66.33,19.35,0,37.57-46.28,23.88,1.21,19.71,0,37.57l-19.66,3.21v18.75c51.04-1.83-15.45,22.14,0,37.57,51.04-1.83-15.45,22.13,0,37.57,55.36-1.1-38.54,30.75,19.66,40.78l-19.63,24.93,19.5,9.57.09,9.2c-1.76,6.94-25.5,5.55-19.6,21.92l26.07,6.41c-5.36,17.89-32.77,3.31-26.19,28.1l26.19,9.47-25.97,12.7-.14,18.51c51.04-1.83-15.45,22.14,0,37.57,51.04-1.83-15.45,22.13,0,37.57,50.93-1.46-14.82,21.21,0,37.57,7.47.5,24.38-4.43,19.63,9.35-2.85,8.27-26.8-6.12-19.62,18.85l19.52,9.51.1,9.2c-46.23,23.99,1.25,19.66.03,37.58l-19.66,3.21c-4.44,20.29,5.99,17.96,19.47,28.16-47.26,23.61,1.07,29,.19,43.77l-19.66,3.21v18.75c47.61.18,1.34,17.67-.15,21.93-8.33,23.85,17.68,11.41,19.78,18.85,3.81,13.49-31.28,14.46-19.67,34.34l26.15.09c-13.02,16.73-32.56,16.49-26.14,43.74l58.78.03V363.15ZM1022.14,363.15h-58.76v1239.72h58.76V363.15Z"/>
      <path d="M604.39,432.02c46.46-17.08,91.85-43.4,143.51-24.98,9.23,11.82-51.14,33.76-61.93,43.83-21.62,20.18-41.34,74.99-35.98,102.99,2.82,14.72,54.93,71.61,68,91.58,75.48,115.28,117.41,247.67,141.02,381.38,9.64,9.06,11.78-.65,12.91-9.32,3.3-25.32,4.39-52.77,6.61-78.28,17.76-20.95,38.21,82.32,39.03,90.86,18.77,195.18-98.36,378.62-301.53,424.4-324.48,73.12-586.25-226.74-468.66-521.54,10.09-9.77,11.5.93,12.8,9.43,3.35,21.87,3.49,46.89,6.85,68.76,1.3,8.44,3.59,20.35,12.86,9.48,20.65-126.35,62.48-255.54,131.85-365.13,14.22-22.47,71.4-87.07,75.67-102.98,8.11-30.26-13.37-83.96-38.28-104.3-10.54-8.6-67.31-29.46-58.18-41.16,52.98-19.82,96.24,7.91,143.51,24.98,20.96-91.85,149.41-94.1,169.92,0ZM497.93,383.28c-71.67,15.85-64.08,133.05,24.53,130.4,96.22-2.89,86.36-154.91-24.53-130.4ZM486.74,519.76c-59-19.85-60.65-107.71-143.58-100.19,36.63,27.88,49.26,62.5,65.01,103.51,8.79,5.61,48.83,3.62,62.42,2.86,7.34-.41,17.91,4.14,16.15-6.18ZM695.71,419.56c-71.98-7.45-81.77,56.1-114.68,87.18-10.71,10.12-25.88,8.29-28.92,19.13l83.64-7.32c5.39-42.84,31.36-69.11,59.95-98.99ZM412.48,539.11c-7.65,3.96-14.76,9.42-4.14,15.11,23.5,12.61,128.78,11.39,160,9.22,10.63-.74,68.63-7.44,68.49-15.59-21.32-20.33-54.07-3.4-81.17-2.83-48.1,1.01-95.48-1.43-143.18-5.91ZM845.83,1058.11c-21.6-150.43-76.76-343.54-182.92-460.03-16.24-17.82-26-34.05-52.1-22,9.97,29.41,22.74,56.46,43,80.81,13.34,16.04,62.03,50.32,65.02,57.03,5.32,11.96-9.88,30.3-10.11,46.69-1.06,76.6,62.4,108.9,70.65,139.19,2,7.35-4.01,17.61-2.37,27.11,7.91,45.75,17.99,113.34,68.83,131.19ZM421.51,576.06c-9.5.94-23.32-2.98-31.28,1.35-4.37,2.38-52.13,67.65-58.99,77.98-77.37,116.45-124.31,266.35-138.2,402.73l42.74-43.47c23.95-34.21,14.25-85.01,25.39-119.66,7.07-22,47.53-47.09,57.95-88.44,7.05-27.97-2.19-85.38.97-92.63,4.01-9.21,35.11-25.94,46.14-37.49,25.3-26.49,55.29-63.41,55.28-100.36ZM422.35,626.9c-39.08,67.11,39.25,163.65,118.45,148.03,49.22-9.7,120.88-106.26,69.98-145.99-12.81-6.05-50.28,16.47-65.1-5.95l55.57-15.51c6.63-8.7-5.17-27.46-14.32-30.44-9.27-3.01-125.81-3.01-134.98,0-8.1,2.66-18.73,20.27-17.38,26.98,3.12,15.54,43.79,2.94,52.1,18.96-14.21,23.12-51.61-3.73-64.3,3.9ZM591.22,776.42c-16.33-2.77-27.88,10.16-42.73,12.14-38.74,5.17-67-2.27-100.83-18.4l-.33,33.42,74.12,27.98,68.96-24.71.82-30.44ZM317.07,857.75c49.29-3.2,109.11,2.37,110.66-58.91-8.86-15.76-23.05-3.22-38.94-6.11-16.28-2.96-31.17-8.79-45.55-16.32l-26.16,81.34ZM695.47,782.76c-19.62,9.81-92.58-3.11-90.26,20.67,14.02,52.93,64.52,43.98,110.05,54.33l-19.79-75ZM506.34,864.02c4.07-37.19-43.67-33.79-71.75-37.5-20.11,19.92,57.98,39.18,71.75,37.5ZM604.29,845.17c-2.47-35.07-48.8-10.07-70.9-5.31l-.86,24.15,71.76-18.84ZM512.9,1280.42v-394.46l-97.9-28.14c2.25,47.39,17.05,95.52,65.2,115.89,2.44,19.87-23.71,5.03-32.24-.43-36.02-23.05-36.31-59.79-52.24-94.09l-25.72,4.37c-3.03,49.08-8.53,97.21-7.57,146.7.82,42.81,5.74,113.49,15.16,154.52,4.2,18.3,30.13,87.9,45.44,94.57,15.3,6.67,84.1,18.83,89.88,1.06ZM525.96,885.96v403.85c55.19,1.32,89.88,3.06,115.44-48.95,31.7-64.49,38.06-263.99,28.56-336.46-2.76-21.02-11.65-23.89-33.28-25.25-16.04,39.51-29.2,104.69-84.6,103.81,41.13-33.72,63.46-71.14,65.25-125.13l-91.37,28.15ZM708.73,870.3c-45.34,1.29-20.09,37.43-19.28,65.49,3.18,110.47,3.96,225.32-39.41,328.94,47.83.77,61.02-104.56,64.41-141.65,2.71-29.58,3.57-243.78-5.72-252.78ZM349.69,1123.89v-237.93c0-5.12-16.23-12.54-22.74-9.29l-8.84,10.31c-6.53,79.3-10.57,157.54-1.02,236.86,5.35,44.41,10.86,142.23,71.74,140.89-8.89-30.48-24.91-60.99-31.09-92.21-2.42-12.24-7.02-37.4-8.05-48.63ZM891.65,1001.84c-82.44,406.62-661.82,405.28-744.44,0l-13.54,78.25c27.53,496.52,761.42,484.27,771.3-12.74l-13.32-65.51ZM193.04,1077.04c-4.14,5.55,4.19,14.89,9.76,18.55,21.61-25.58,59.04-38.71,83.99-57.08,18.74-13.8,12.37-33.23-8.66-27.23-27.29,7.79-44.69,37.7-65.41,56.61-7.27,6.64-19.04,8.29-19.68,9.14ZM844.33,1078.17c-29.79-12.88-44.54-43.49-72.25-58.82-13.41-7.42-31.75-19.31-43.7-1.81-3.27,14.65,53.19,38.96,67.39,47.95,17.84,11.29,26.66,33.47,50.06,30.19l-1.5-17.51ZM297.42,1058.18c-9.39-9.15-89.96,41.79-84.83,65.6,2.51,11.66,8.8,7.17,16.45,3.48,13.73-6.62,88.02-49.94,68.38-69.08ZM735.88,1088.55c28.29,1.09,50.48,31.76,70.76,41.68,11.53,5.64,12.39,1.12,19.63-6.45,7.16-26.42-83-74.24-91.36-65.6l.97,30.38ZM297.38,1101.99c-22.55,17.82-82.13,35.45-48.93,68.71,25.3-20.79,69.53-29.93,48.93-68.71ZM728.38,1108.27c-8.04,36.84,35.5,33.35,52.1,59.57l19.68-6.49c5.52-20.42-49.64-59.68-71.78-53.08ZM767.27,1202l3.93-24.79-39.62-25c-27.7,24.47,7.04,52.03,35.69,49.79ZM310.48,1158.36c-23.77-1.2-63.51,19.74-32.59,41.03,17.76,8.62,38.65-24.76,32.59-41.03Z"/>
      <path d="M539.02,56.35c32.89.98,18.83,57.34,13.21,78.68-2.78,10.54,6.58,18.22-13.21,15.24V56.35Z"/>
      <rect x="486.79" y="56.35" width="13.06" height="93.92"/>
      <path d="M388.92,1008.06c29.93,35.1,33.95,75.61,88.18,87.61l-6.75,12.57c-50.27-9.82-83.48-51.41-81.43-100.18Z"/>
      <path d="M414.88,1145.82l16.23,31.5,49.12,37.32c-32.18,3.31-71.37-23.3-78.14-53.42-2.81-12.52-2.29-18.11,12.79-15.4Z"/>
      <path d="M649.97,1014.35c-1.95,27.92-27.66,70.26-52.76,83.95-12.99,7.08-43.16,18.54-41.97-2.61,14.47-8.1,29.96-8.18,44.1-18.64,23.58-17.44,22.2-57.53,50.63-62.7Z"/>
      <path d="M636.92,1145.83c12.42,13.31-56.94,94.81-84.81,59.42,11.53-8.85,29.52-8.36,41.59-16.41,17.66-11.77,19.55-41.94,43.22-43.01Z"/>
      <path d="M558.57,707.55c2.85,16.37-2.62,11.15-14.08,14.25-23.72,6.43-40.89,6.14-64.21-1.86-9.16-9.14.56-11.33,9.65-12.44,21.31-2.6,46.72,1.84,68.63.05Z"/>
      <path d="M571.63,444.58c-2.67,64.21-96.84,68.49-104.51,3.18,28.93-2.03,16.37,30.81,55.57,28.71,31.36-1.68,22.04-28.5,48.94-31.89Z"/>
    </g>
  </g>
</svg>