<?xml version="1.0" encoding="UTF-8"?>
<svg fill="currentColor" id="Ebene_2" data-name="Ebene 2" xmlns="http://www.w3.org/2000/svg" viewBox="0 0 1035.19 1610.73">
  <g id="Ebene_2-2" data-name="Ebene 2">
    <g>
      <path d="M1035.19,0l-1.1,1596.29c-10.54,5.89-22.57,6.72-34.54,7.56-312.08,21.95-652.29-17.3-967.36.08l-29.65-9.05L0,12.48C1.45,9.55,11.83,0,12.96,0h1022.22ZM1022.12,12.38H16.23v959.67l36.02-18.29,42.56,46.49c12.85,6.08,25.07-11.24,41.87-9.73,13.73,1.23,31.82,21.18,47.34,24.1,66.01-40.49-8.85-68.54-16.19-96.86-12.28-47.34,72.07-73.73,62.63-108.01-1.69-6.14-9.87-11.76-11.43-20.63-14.96-84.81,49.11-131.98,102.9-186.3,1.61-7.82-40.17-114.73-47.32-120.25-19.63-15.13-36.34-6.09-33.22-49.21,27.01-17.05,46.76,11.48,53.2,31.39,42.16,8.48,180.24-15.16,202.13-49.96,4.53-7.21-14.2-56.66,25.66-61.95,11.22,20.21,33.67,34.02,10.71,53.89l2.02,8.2c17.07,26.28,177.29,61.79,200.06,46.54,8.21-5.5-1.91-20.92,27.48-29.3,33.07-9.43,25.44,24.31,14.45,38.31-6.14,7.82-20.29,3.73-30.88,20.24-6.86,10.7-37.79,97.97-37.32,107.03,49.4,60.42,114.1,105.14,103.87,191.33-1.46,12.3-14.09,21-10.17,34.53,9.23,31.9,77.62,49.98,61.52,100.68-5.73,18.04-44.23,28.91-37.98,53.92,23.13-4.98,30.24,11.58,48.14,18.22l52.2-48.64,40.59,55.64c15.47,1.67,21.27-11.45,33.99-17.6,6.29-3.04,21.06-.4,21.06-1.4V12.38ZM728.21,476.77c-50.5,3.66-98.06-4.35-145.5-20-18.03-5.95-52.58-29.16-66.83-29.15-14.15,0-35.17,19.44-50.96,25.55-54.36,21.03-109.07,31.48-167.91,32.95,3.59,11.46,6.42,33.84,22.62,34.06,7.93.11,71.72-30.19,93.69-35.44,60.03-14.35,124.87-16.37,185.85-6.42,40.87,6.67,79.39,24.16,118.56,35.99l10.48-37.54ZM708.57,544.81c19.49-16.66-83.98-45.09-91.19-46.62-99.77-21.08-204.12-7.77-294.29,37.34l3.36,15.46c117.64-70.74,259.7-60.06,382.12-6.18ZM491.74,515.76c-28.17,1.68-164.18,30.87-160.9,61.95l22.17,41.28c86.26-39.96,163.9-54.66,257.65-27.74,17.64,5.06,54.78,26.36,63.21,27.11,15.7,1.4,36.75-47.24,17.7-60.34-45.18-31.08-145.08-45.53-199.84-42.26ZM754.42,829.63c-13.4-43.51,22.62-49.19,4.65-100.5-59.32-169.35-389.36-180.31-472.02-17.35-11.16,22.01-18.74,38.38-14.7,63.65,2.64,16.5,33.31,53.77-1.35,54.26-14.2-58.21-30.8-72.89,3.78-129.53,16.98-27.81,55.26-45.98,51.74-74.78-40.11,27.43-96.68,90.07-95.05,139.05.71,21.46,20.68,42.63,17.17,59.06-6.72,31.45-56.58,53.5-68.2,84.63-1.32,14.59,35.15,32.56,41.41,45.47,19.78,40.75-47.42,100.82-35.78,111.3,22.22,20,29.84-56.92,52.19-37.08,8.38,7.44-50.83,58.24,6.5,55.7-1.11-36.54,51.62-83.94,52.85-114.72,1.23-30.54-23.23-31.02-30.37-52.17-11.05-32.73,19.06-60.56,42.84-80.77,6.25,28.99-27.07,37.28-26.61,65.19.39,23.57,36.94,37.71,32.09,72.47-3.35,23.97-78.26,114.43-51.32,131.85l19.72,2.92c-4.14-45.18,50.73-93.61,57.53-128.45,4.06-20.79-5.7-30.3-5.38-41.39.11-4.02,12.08-.48,13.78-12.38,9.61-67.23-20.61-66.85-30.54-108.44-15.81-66.24,73.85-70.42,119.79-97.87,26.72-15.97,52.33-42.63,76.66-61.95,49.96,37.23,80.31,69.29,140.47,94.52,9.53,4,23.1,1.08,32.55,6.3,2.01,1.11,28.53,32.03,29.52,34.02,15.74,31.73-22.01,51.54-27.87,78.68-2.76,12.8-4.29,47.65-1.34,59.34,1.19,4.72,11.7,3.86,12.8,8.48,3.22,13.44-1.85,30.76,1.58,47.03,6.72,31.87,48.73,74.26,52.05,111.62l24.83,10.46c11.95-55.07-74.74-114.16-50.7-162.4,6.52-13.09,31.05-32.13,31.04-44.98,0-18.24-37.46-35.97-32.53-58.79,10.07-10.06,42.53,38.71,44.56,47.85,8.7,39.07-33.55,48.68-31.43,78.57,10.53,15.72,54.54,113.53,62.05,114.99,35.62,6.91-8.21-51.36-3.33-55.66,22.25-19.58,31.12,54.24,45.66,37.08,9.34-11.02-39.43-65.41-39.53-89.73-.14-33.38,46.59-51.28,45.16-67.04-8.45-27.98-52.98-47.01-61.47-71.95-11.11-32.65,12.9-47.06,10.58-77.66-2.32-30.65-59.68-112.92-85.15-130.27-9.33-6.35-17.41-3.33-13.2,6.29,4.19,9.56,38.37,33.44,48.52,46.91,41.12,54.53,30.86,79.56,16.53,138.87-2.27,9.38,4.82,10.97-12.76,9.32ZM414.67,755.35c-18.32,1.53-34.45,7.09-51.31,13.26-11.28,38.97,16.24,75.69,44.79,101.26,30.52,27.34,39.23,7.82,68.59,8.76,32.75,1.05,52.85.91,84.9.53,16.43-.2,31.54,10.85,50.95,5.17,16.28-4.77,96.09-96.27,52.85-115.92l-21.98-.46-.2,18.4c-20.93-12.57-30.01,5.14-42.92,6.44-13.23,1.33-28.88-17.21-48.46-6.5,2.68-29.26,36.8-29.45,58.72-34-17.91-18.2-44.28-7.25-65.23-3.09-13.79-17.55,7.02-31.84,5.87-39.45-.57-3.8-25.45-27.35-29.71-28.04-5.91-.96-33.02,16.55-34.68,21.85-4.4,14.06,23.52,26.61,6.41,36.51-19.81,11.46-51.12-9.04-78.58,15.29,29.87-2.49,66.23-3.85,71.81,30.93-19.58-10.71-35.24,7.83-48.46,6.5-12.89-1.3-21.96-18.91-42.9-6.49-4.78-4.21,15.23-27.11,19.55-30.94ZM675.91,854.45c-7.7-8.67-50.61,43.24-65,46.88-15.7,3.97-102.74-3.6-127.43-4-16.49-.27-45.81,6.58-56.03,4-14.32-3.62-57.36-55.56-65-46.88,1.08,93.04,22.74,234.8,147.18,241.53,135.59,7.34,173.01-139.62,166.28-241.53ZM1022.12,1287.82v-275.52c0-22.59-61.05-2.42-13.19,30.96-21.4,22.29-16.61,3.14-25.82-6.04-21.7-21.62-47.59-39.15-52.51-71.33-28.09,21.48-54.35,45.25-39.18,80.47-20.5-7.37-26.14-32.96-42.3-43.45-8.51-5.53-16.63-3.8-16.3,3.2l32.39,55.87c71.92,11.61,126.73,61.17,136.61,130.55,4.34,30.48-10.08,73.91,20.3,95.3ZM741.26,1101.99l-65.24-123.71-32.57,86.43c26.18-2.3,24.79,25.05,45.53,24.94,9.24-4.46-35.6-65.63-9.86-55.63,11.43,4.44,27.19,36.3,28.28,47.96,1.64,17.67-12.13,22.96-11.79,38.66l45.66-18.65ZM16.23,1006.11v281.71c16.47,4.51,16.21-13.36,17.69-23.3,6.26-42.07-1.18-93.93,22.41-133.73,4.27-7.2,60.69-49.7,71.6-55.88,19.34-10.96,46.08-4.1,45.76-31.7-.29-24.82-35.57-37.48-59.45-33.97-4.95,21.39,13.25,22.77,26.05,34.09,2.25,15.68-10.64,9.58-19.23,5.82-28.55-12.49-56.72-74.12-85.1-61.81-2.61,1.13-19.35,17.48-19.73,18.78ZM349.35,1071.06l38.17-28.69-28.4-57.9c-17.41,41.28-58.12,76.72-55.45,123.8,31.87,6.94,21.81-32.03,35.39-56.19,7.21-12.82,13.89-17.2,26.67-24.26,13.2,10.41-19.62,40.12-16.37,43.24ZM734.69,1281.66c2.64,19.82-34.39,24.39-48.28,24.07-109.82-2.51-241.84-120.66-314.54-191.44l16.6-49.36c-32.35,36-65.05,32.22-42.27,86.61,24.58,58.7,150.12,142.49,208.96,173.37,125.05,65.64,270,104.3,411.37,123.96l-4.83-14.01-233.44-57.36c-2.83-15.43,11.77-8.9,21.11-7.62,50.15,6.87,108.18,32.61,160.13,40.17,7.51,1.09,34.18,7.67,34.2-4.52-85.37-32.39-156.01-105.19-215.75-170.61-18.13-7.64-53.46,17.22-71.54-6.01l58.57-18.44c-20.72-18.07-13.62-48.92-19.44-66.74-2.15-6.57-13.08-6.33-15.75-10.95-6.04-10.42-2.85-23.08-13.67-30.67,3.08,88.45-9.63,116.91-104.51,123.86-9.67.71-18.97-4.99-16.24,9.15,56.39,34.5,120.38,66.41,189.33,46.55ZM408.25,1071.1l-16.81,37.09c45.72,61.27,146.77,139.21,227.99,91.99,44.42-25.82,37.34-93,1.04-122.18-62.61,48.08-152.04,39.4-212.21-6.91ZM141.14,1101.25l-7.27-11.53,6.51,24.68-18.6,1.06-1.07,17.58-46.42-2.53c-25.06,41.99-12.81,86.04-20.42,127.96-2.45,13.52-33.34,61.2-8.15,66.44,20.43,4.26,28.75-51.65,37.46-60.36,9.18-9.17,38.01-12.19,49.29-30.59,16.25-26.52-4.57-53.74,2.73-84.18,16.7-69.63,135.59-29.24,102.03,34.84l-44.61,47.42c51.19,14.1,79.94-45.26,68.5-83.3-4.71-15.65-25.61-27.3-22.88-46.76l-22.07,6.75c-12.03-23.17-51.22-12.57-75.04-7.51ZM904.3,1096.05c-19,7.88-57.06-4.28-73.85.36-4.17,1.15-2.95,8.19-9.48,11.51-4.37,2.23-15.54-1.98-19.96,1.48-2.4,1.88-.13,11.51-3.22,14.94-7.74,8.59-15.92,8.62-20.21,24.36-10.78,39.59,16.05,103.19,68.16,83.31l-35.42-37.5c-48.95-55.24,53.21-116.83,90.36-54.77,17.99,30.05,3.16,41.98,3.29,70.67.2,45.76,30.68,34.8,53.03,61.74,8.96,10.8,12.57,25.03,19.65,37.41,3.61,6.3,5.69,19.79,15.98,15.34,25.43-10.98-6.78-56.93-8.52-72.81-1.71-15.52,6.12-26.98,5.64-41.4-1.19-35.47-22.47-104.74-72.08-77.66l-13.37-36.99ZM1002.5,1411.61c12.26-10.38-62.91-41.79-71.25-46.94-46.5-28.7-172.29-126.23-190.46-172.38-10.24-26.01,2.14-51.09-15.86-71.52-31.27,46.11,8.44,95.38,39.11,129.97,57.5,64.83,150.62,141.42,238.45,160.87ZM323.2,1126.81l-19.55.08c22,69.99-74.72,149.47-127.59,191.71-42.72,34.13-83.13,50.37-128.05,76.94-8.65,5.12-15.57.75-12.16,16.08,35.77,26.21,221.12-138.94,248.33-170.09,32.64-37.37,46.01-64.01,39.01-114.72ZM218.68,1250.7c-23.25,5.27-58.66-16.27-52.14-39.96,3.96-14.38,24.16-1.54,36.03-8.87,46.83-28.94,11.24-87.48-36.15-65.73-35.97,16.51-2.68,71.22-16.44,102.04-7.44,16.67-44.28,31.84-55.58,46.36-21.32,27.41-17.52,30.63-47.85,59.89-17.07,16.47-13.21,32.35,10.59,29.07,27.86-3.84,117.72-73.59,142.05-94.89,8.44-7.39,21.11-15.54,19.48-27.91ZM1001.52,1344.36c-1.05-1.13-17.82-3.76-28.8-12.8-22.25-18.32-19.22-41.56-32.41-55.97-12.19-13.32-39.86-14.53-50.36-38.89-15.52-35.98,15.32-65.04-8.09-97.63-51.94-28.44-97.19,29.98-44.93,61.62,9.72,5.89,64.05,2.51,25.54,37.93-17.05,15.68-45.4,3.69-34.93,29.52,54.18,39.08,102.23,85.06,165.24,112.4,8.95-.46,14.18-30.3,8.74-36.18ZM360.09,1242.18c-8.86,6.71-21.36,20.38-30.2,5.4,23.13-20.93,51.3-39.3,16.2-64.89-29.71,47.28-64.37,90.03-107.65,126.8,109.8,85.83,245.57,165.15,381.87,207.52,48.8,15.17,99.86,20.95,146.95,40.14-9.52,13.83-13.56,6.4-24.82,5.19-115.93-12.44-269.31-81.88-369-139.45-23.05-13.31-136.84-96.13-145.65-97.38-9.54-1.36-20.77,9.49-12.55,18.24,123.29,90.56,261.02,173.63,412.12,216.13,109.88,30.91,208.35,27.75,322.25,24.48,3.79-21.32,26.05-108.5,7.63-120.46l-26.52-2.72c-5.09,4.64,13.06,59-19.59,55.71l5.73-52.19-31.82-15.89c-6.83,6.38.32,66.48-26.16,61.89.53-15.74,19.07-87.6-19.89-65.22-18.56,10.67-2.58,54.1-32.37,52.84l12.23-51.93c-35.19-34.3-33.45,1.65-41.85,27.31-3.55,10.85-.78,14.68-16.11,12.24l5.61-61.01-25.17-7.08-22.93,49.43c-21.18-16.02,13.05-39.51,3.23-61.79l-25.15.92-17.27,42.55-16.26-3.14,18.01-43.64c-40.91-42.46-25.24,34.59-63.8,28.02l19.07-45.73-23.49-15.38-41.26,42.56,17.85-46.48-11.35-12.43-19.83-.22c-11.4,7.04-10.04,37.51-32.4,34.37l18.92-46.51c-36.09-38.88-30.56,23.25-64.64,27.94l19.53-61.85c-34.85-9.27-30.31,28.93-58.72,30.89l25.94-46.44c-34-31.96-36.04,19.19-65.13,21.68-7.22-7.76,56.77-74.06,4.37-60.92-14.64,3.67-27.76,43.2-43.56,29.96-10.64-8.91,35.37-33.84,32.59-46.31-22.13-23.94-25.03-.63-34.95,6.89ZM319.96,1585h251.47l5.67-20.84-22.15-15.07-25.98,29.6,2.67-36.3c-38.67-27.26-25.41,10.69-58.16,17.81l12.35-34.11-23.34-14.66-34.73,30.2,5.85-39.27-22.3-16.16-29.24,36.89c-3.08-14.99,17.33-47.42-3.4-55.66-25.26-10.05-18.01,35.04-42.35,30.87l12.9-49.3-21.94-5.57-30.12,30.13,12.99-49.53-19.78-3.42-32.43,28.16,19.38-40.26-22.82-13.86-35.72,29.39,17.9-40.3-14.7-15.31c-12.91,11.13-21.65,27.89-42.46,24.59-3.7-2.74,39.99-39.05,16.21-43.26-5.37-.95-88.03,53.48-85.53,62.22,37.83,58.81,89.09,106.28,150.83,142.21,13,7.56,46.9,28.79,58.92,30.83ZM88.08,1585h189.42l-78.46-52.55-114.09-114.87c-7.61-1.18-13.27,4.15-15.42,10.53-3.55,10.53,12.17,151.79,18.56,156.88ZM16.23,1439.51v145.5l52.28.02-18.94-151.21c-6.61-9.15-30.56-2.9-33.34,5.69ZM1022.12,1436.41l-32.44-6.07c-1.57,19.78-25.61,149.13-19.85,154.7l52.29-.03v-148.59Z"/>
      <path d="M511.79,62.76c5.38,3.62,10.5,43.83,30.18,42.56l16.3-39.22,19.65-4.16-42.43,80.33-42.3-71.27c-5.1-12.04,13.23-11.86,18.58-8.25Z"/>
      <path d="M453.89,136.18c.47-17.44-.81-35.16-.03-52.65.42-9.53-6.13-24.51,9.7-21.56,15.01,14.38,20.46,74.51-9.66,74.2Z"/>
      <path d="M780.53,1009.19c-26.56-52.46-5.69-68.07,26.31-108.34l-26.29-37.27c-2.63-7.77,1.53-12.31,9.61-9.11,13.86,5.5,32.69,38,35.87,52.76-.53,22.65-47.07,24.24-37.75,72.77,2.79,14.53,24.66,25.88-7.74,29.18Z"/>
      <path d="M257.87,848.26c4.66,19.27-28.16,42.32-25.03,57.91,2.67,13.29,39.93,24.89,36.76,61.32-.68,7.82-19.39,53.91-31.25,41.68,1.04-18.12,16.07-32.83,13.19-52.28-3.44-23.19-38.35-22.3-32.7-61.73,1.4-9.78,28.93-57.45,39.04-46.91Z"/>
      <path d="M597.57,637.63c-3.28-17.84,6.54-12.96,20.04-9.67,65.23,15.91,105.6,65.66,123.46,124.36-6.35,6.3-8.74,13.26-16.14,3.03-9.23-12.75-13.93-38.15-26.55-55.33-22.45-30.56-61.55-56.16-100.81-62.4Z"/>
      <path d="M447.3,625.37c3.68,17.94-5.57,9.86-14.35,13.93-39.8,18.48-61.05,20.88-88.99,58.32-16.5,22.11-19.87,47.26-40.26,63.93,3.54-69.88,69.57-133.76,143.6-136.18Z"/>
      <path d="M675.91,730.56c-12.32,10.33-98.01-46.65-111.09-58.7-7.03-6.47-15.29-10.81-12.95-21.72,24.88-1.1,37.22,22.25,57.93,34.81,6.22,3.77,78.52,35.21,66.11,45.62Z"/>
      <path d="M486.49,650.13c2.5,11.15-6.33,14.92-12.9,21.77-12.52,13.05-99.37,68.53-111.14,58.66l15.03-19.75,109.01-60.68Z"/>
      <path d="M410.62,1204.91c-14.85-13.93-37.21-34.55-46.94-51.45-3.52-6.11-11.71-21.49,2-20.3,5.75.5,63.12,67.18,78.56,80.2,17.58,14.83,43.02,33.1,62.47,46.04,13.44,8.94,83.49,41.62,84.18,50.1,1.19,14.61-16.95,3.5-21.49,2-45.92-15.2-123.44-73.44-158.78-106.57Z"/>
      <path d="M656.31,916.36c8.01,26.25-39.7,147.46-68.45,142.34-10.19-1.81-9-7.47-3.41-15.46,10.49-15,22.83-20.24,33.94-42.15,12.75-25.16,11.78-45.95,18.67-68.98,3.16-10.58,5.17-17.8,19.24-15.75Z"/>
      <path d="M382.04,922.55c14.71-15.97,35.76,74.78,39.96,82.79,10.01,19.08,22.69,24.78,31.9,37.9,14.58,20.77-12.07,13.65-26.19.03-25.68-24.77-39.98-86.52-45.66-120.72Z"/>
      <path d="M450.59,934.91c-11.19-2.48-9.07-17.62.1-18.57,5.75-.59,20.56,7.37,32.54,6.75,31.57-1.63,40.9-1.72,72.2-.26,13.26.62,55.96-15.73,32.33,12.08h-137.17Z"/>
      <path d="M447.26,953.47c2.44,47.17,32.1,70.31,65.38,99.01-41.72,7.46-78.35-49.55-78.68-83.33-.12-12.74-3.71-18.18,13.3-15.68Z"/>
      <path d="M604.06,953.51c11.79,30.1-40.4,105.34-68.59,105.08-29.54-.28,26.6-36.63,29.55-39.98l39.04-65.09Z"/>
      <path d="M545.28,947.32v43.26s-32.48-18.53-32.48-18.53c-1.81,10.54-5.71,21.06-19.72,18.54l-.02-43.28h52.21Z"/>
      <path d="M558.33,854.45c2.86,16.04-2.6,11.12-14.15,14.17-25.7,6.78-39.04.28-64.23-1.85-10.47-8.05.74-11.27,9.71-12.36,21.31-2.58,46.75,1.83,68.67.05Z"/>
      <path d="M620.61,544.88c22.81-6.12,42.31,28.43,11.77,36.2-27.14,6.91-27.87-31.89-11.77-36.2Z"/>
      <path d="M398.4,544.9c26.16-7.43,30.27,32.11,12.93,37.03-26.16,7.43-30.27-32.11-12.93-37.03Z"/>
      <path d="M500.25,533.1c3-4.53,27.28-10.51,31.63,2.88,13.95,43-51.99,27.83-31.63-2.88Z"/>
      <path d="M969.84,1225.87c-6.67,7.52-58.3-36.11-29.25-43.3,23.99-5.94,34.05,25.78,29.25,43.3Z"/>
      <path d="M107.64,1182.59c12.63,12.13-19.48,47.92-39.12,43.28-13.32-22.06,24.13-57.67,39.12-43.28Z"/>
    </g>
  </g>
</svg>