<?xml version="1.0" encoding="UTF-8"?>
<svg fill="currentColor" id="Ebene_2" data-name="Ebene 2" xmlns="http://www.w3.org/2000/svg" viewBox="0 0 1019 1604.91">
  <g id="Ebene_2-2" data-name="Ebene 2">
    <g>
      <path d="M1019,1604.91H6.71l-6.71-46.19V40.36C.04,21.26,5.21-.91,28.77.03h968.16l21.59,10.1.47,1594.78ZM743.5,18.97h-445.28c-1.69,0-3.88-5.49-6.41-5.38-5.98,3.83-9.41,5.79-8.67,13.57,1.53,15.93,64.15,106.81,76.24,130.91,2.97,5.92,12.25,17.32,2.84,22.04-12.56-.63-19.21-16.31-25.02-25.37-28.53-44.48-48-95.51-83.83-135.76H38.75c-2.75,10.75,4.53,12.39,9.54,18.65,56.87,71.04,137.02,138.19,192.58,210.28,6.54,8.49,11.98,12.61,9.27,25.05L19.53,37.55v266.39l173.06,108.48-9.68,15.3L19.53,322.52v340.73c14-3.95,106.94,16.7,108.96,21.75,5.44,13.61-14.15,9.58-21.77,8.6-26.47-3.42-67.08-25.48-87.19-8.66v350.02c27.08,3.39,36.63-30.85,64.06-18.52l-64.06,46.4v275.68c10.75,2.25,12.97-3.31,19.1-9.41,19.31-19.19,87.18-104.79,105.76-108.4,4.52-.88,11.02-1.11,9.64,3.16l-102.42,120.83c20.13-11.88,44.44,6.92,59.88,4.55,18.47-2.85,39.9-34.1,84.13-35.91,50.53-2.06,56.46,20.91,85.98,28.45,27.47,7.02,37.67-62.36,38.93-80.79,5.81-85.15-52.68-76.02-103.79-120.68-29.54-25.82-102.01-155.25-115.34-193.8-2.96-8.56-7.43-15.76-4.54-25.42l14.06-8.68,24.36,2.02c6.11-33.99,22.65-66.1,54.03-28.26l93.09-109.46c-42.89-116.4-57.39-227.7,83.74-278.53,4.03-57.79,10.54-107.58,50.58-154.07,13.58-9.48,23.05,43.57,26.58,45.65l24.68.93c-8.81-64.84-27.81-138.67,41.61-179.74,4.46,68.53,42.46,114.11,67.4,173.52,22.77-11.97,7.34-46.81,19.23-68.12,58.37,44.08,68.71,116.63,65.03,184.86,86.11,31.01,111.23,91.3,100.78,176.87-3.86,31.65-23.71,60.59-24.29,92.54l97.57,108.77c37.81-25.69,46.54,11.83,49.21,44.06,1.75,1.74,36.35-26.85,44.2-2.16,2.79,12.72-3.11,23.35-7.56,34.6-20.93,52.99-84.7,161.62-129.61,196.78-18.83,14.74-71.96,36.93-81.77,57.19-15.58,32.18,7.52,82.32,11.18,116.38,10.67,15.61,42.48-8.18,59.28-11,28.46-4.78,50.63-1.6,76.49,9.82,14.14,6.24,37.57,29.36,45.05,31.03,17.24,3.86,65.27-15.27,91.58.96-24.38-42.69-78.47-74.75-105.18-111.97-5.67-7.9-20.47-26.31-.62-24.22l118.61,117.65v-275.68l-57.66-46.4,57.66,18.52v-350.02c-18.02-16.74-55.38,5.42-80.79,8.66-7.95,1.01-26.48,5.38-21.76-8.59l102.55-31.04v-331.44c-55.16,25.4-100.41,67.41-153.21,96.61-10.16,5.62-8.06,14-19.65-.58l172.86-114.61V37.55c-38.89,17.82-204.62,234.4-221.04,235.29-17.93.97.73-24.36,3.25-27.72,44.65-59.51,115.72-122.65,166.36-179.86,4.7-5.31,36.93-42.49,32.17-46.27l-217.84,3.03c-12.62,5.89-69.45,120.1-84.31,141.5-5,7.21-10.87,17.17-21.3,16.57-9.38-4.38,1.18-15.18,4.1-20.82,9.11-17.54,83.16-133.55,75.92-140.32ZM577,421.63c-15.6-63.26-66.98-109.02-80.13-173.42-57.38,30.54,29.37,171.85-44.52,161.19-26.19-3.78-20.66-32.98-41.91-31.1-9.67,25.28-45.95,100.24-14.86,116.42,60.88,31.7,50.96-55.4,88.28-48.31,19.16,3.64-1.33,45.03,19.29,43.32,20.98-13.84-.13-32.01-1.14-47.24-.76-11.41,10.55-55.63,26.78-51.8l60.72,108.67c11.27,7.56,52.39-.36,56.99-13.5,14.22-16.29-23.66-136.5-37.46-126.16-5.81,22.18-7.56,50.67-32.03,61.92ZM531.98,427.86c-11.42-.51-13.54-3.09-12.77,9.21,1.77,28.06,24.4,63.81-21.43,70.26-17.58-3.18-18.91-33.22-32.91-29.96-4.47,1.04-9.58,17.58-9.3,21.96,1.02,16.33,48.79,49.02,60.49,64.69l57.96-54.92-42.03-81.24ZM845.95,991.59c-50.83-363.67-601.06-368.08-666.33-9.37l12.79-.81c56.68-282.04,487.66-328.46,614.39-72.7,13.43,27.11,16.66,64.23,39.16,82.88ZM820.35,997.76c-59.58-321.45-551.62-321.76-615.11-3.15,6.91,10.12,14.28-.84,17.92-7.45,9.57-17.35,14.01-40.78,25.95-61.64,110.96-193.91,419.88-191.6,529.75,4.02,4.22,7.52,29.53,81.51,41.5,68.23ZM696.39,882.27c6.98,6.21,31.36,33.7,37.07,41.59,9.38,12.96,40.56,79.75,45.27,80.01,11.53.63,7-16.37,5.15-23.36-46.21-175.31-294.37-232.88-439.76-136.57-30.77,20.38-114.02,115.52-106.79,150.63,6.59,31.99,35.96-42.35,39.75-48.19,88.91-137.03,293.2-176.31,419.3-64.11ZM173.26,886.31c-30.73-4.14-21.43,67.99-9.58,67.99,18.46-16.81,6.55-46.4,9.58-67.99ZM707.77,920.85c-9.74-10.69-22.21-37.71-41.36-25.62-22.82,37.01-47.92,73.33-74.17,108.08-11.56,15.3-63.56,87.93-76.26,87.8l-163.33-195.93c-19.81-9.73-64.47,63.71-71.62,79.77-18.06,40.57-7.61,58.77,27.19,87.52,28.23,23.32,62.83,23.83,91.47,41.65,65.97,41.06,37.56,133.96,36.32,197.2,55.91-26.3,95.91-34.62,153.69-6.19-4.65-47.5-18.51-120.59,7.41-163.2,26.31-43.24,84.12-39.51,120.38-69.45,5.41-4.46,36.61-40.59,37.77-44.34,7.51-24.22-30.76-78.91-47.5-97.28ZM705,1332.32c-4.27-34.98-24.6-97.16-9.41-129.96,10.73-23.17,88.85-58.07,114.64-87.4,39.95-45.43,77.92-129.06,99.79-185.32-39.41,19.68-43.35,67.11-70.44,95.99-15.89,16.94-48.94,31.6-64.13,49.5-13.91,16.4-15,37.07-28.83,52.69-13.56,2.42-10.36-4.9-8.26-14.16,8.64-38.15,42.14-62.6,62.77-94.23,9.68-30.26-88.46,67.35-93.79,70.38-36.64,20.84-78.68,12.97-99.39,58.71-26.6,58.75-1.91,117.32,7.87,177.15,32.82-.34,58.54-13.11,89.19,6.65ZM288.58,1127.85c-15.82,2.9-14-7.61-18.69-15.93-32.36-57.36-63.59-61.66-96.58-104.85-18.05-23.63-23.69-65.07-57.67-71.17,34.09,54.96,59.38,134.57,102.67,182.54,38.1,42.23,122.9,54.85,121.75,123.75-.2,11.7-15.94,68.82-12.96,71.52,31.05-2.93,54.94.98,83.18,12.41,12.75-51.12,36.09-171.23-13.25-207.02-18.08-13.11-57.53-17.27-78.63-29.28-5.33-3.03-103.47-100.64-93.79-70.38,23.04,35.1,63.21,62.83,63.99,108.42ZM19.53,1391.18c-11.35,51.43,8.43,139.43,0,195.15h986.65v-195.15c0-1.55-15.53-15.65-19.74-18.06-41.61-23.84-61.47,6.08-84.42,1.41-12.28-2.5-31.54-24.21-45.11-31.05-25.51-12.86-54.6-15.48-83.12-9.74-19.05,3.84-40.96,27.13-53.7,28.33-15.48,1.46-32.18-23.07-56.81-24.03-21.96-.86-35.39,14.24-56.7,13.37-30.41-80.95-147.09-73.99-181.07.01-36.01-11.51-63.44-30.16-103.21-14.42-13.37,5.29-23.81,26.59-36.87,26.54-14.68-.05-36.58-36.76-96.13-31.22-34.7,3.23-52.96,26.8-71.96,30.05-24.29,4.16-86.45-22.57-97.79,28.8Z"/>
      <path d="M474.46,111.89c17.36,15.9,27.44-69.36,51.25-40.11l-31.59,67.27-16.51,3.96c-9.09-19.18-23.87-37.28-30.16-57.77-3.5-11.39-9.54-13.1,4.54-22.78l22.47,49.44Z"/>
      <path d="M564.08,62.3c-1.69,26.21,13.32,47.04,1.68,72.89-3.94,8.74-1.55,9.41-14.43,7.64,2.04-22.73-2.97-49.23-.05-71.32,1.13-8.52,4.84-19.49,12.8-9.21Z"/>
      <path d="M434.67,1529.24c-9.82,5.57-36.13-1.86-51.86,2.59-6.2,1.75-42.33,44.4-42.78,20.46-.27-14.3,35.1-35.49,49.32-38.94,12.39-3.01,31.09,1.64,38.96-2.66,3.38-1.84,6.07-18.2,22.08-25.02,29.14-12.43,43.94,2.73,65.39,1.35,14.42-.92,23.81-14.35,44.56-12.25,15.74,1.59,23.24,14.39,34.1,17.18,38.75,9.96,82.87-1.12,97.83,53.97l-12.87,6.43c-23.62-47.62-40.96-33.57-79.81-40.59-15.91-2.88-24.01-18.39-45.31-18.93-19.88-.5-27.58,12.02-38.04,12.55-15.27.76-27.01-15.23-48.34-9.49-21.53,5.8-28.19,30.5-33.22,33.36Z"/>
      <path d="M974.15,1518.11c-27.96.78-33.42-26.12-62.57-29.79-23.42-2.94-41.63,14.52-61.17,11.43-6.04-.95-18.16-38.22-60.45-20.25-6.41,2.72-38.23,36.01-33.75,10.73,4.27-24.11,52.46-34.99,71.47-30.81,12.15,2.68,20.07,18.49,29.23,20.59,9.4,2.16,24.61-5.44,36.94-5.55,41.16-.39,63.27,4.34,80.3,43.65Z"/>
      <path d="M275.77,1499.56c-16.83.67-22.59-17.12-38.04-21.97-45.15-14.17-44.62,16.89-62.47,21.04-21.2,4.93-45.64-21.99-84.79-1.63-11.9,6.19-16.41,23.09-32.47,21.15-7.83-7.74,28.41-37.64,38.04-40.55,29.61-8.96,55.49,5.59,72.55,2.19,12.14-2.42,27.15-22.1,46.73-23.33,22.86-1.44,57.37,19.01,60.44,43.11Z"/>
      <path d="M461.57,1419.02c-28.41-16.37-66.35,12.38-80.23,12.48-13.78.1-33.44-33.57-81.75-23.59-16.87,3.48-27.79,28.89-42.87,8.05,24.6-26.28,58.64-35.83,93.3-22.17,11.75,4.63,21.8,19.32,31.37,19.19,12.1-.16,73.34-37.42,80.19,6.04Z"/>
      <path d="M762.69,1425.22c-15.32.6-21.35-13.78-36.51-17.23-50.92-11.57-63.34,23.54-81.93,23.32-7.59-.09-20.17-10.88-31.34-13.55-19.72-4.71-35.65,6.91-48.66-8.01,23.21-27.61,64.17,3.41,80.13,3.06,11.84-.26,29.28-26.17,63.69-25.02,18.82.63,61.43,11.94,54.63,37.42Z"/>
    </g>
  </g>
</svg>