<?xml version="1.0" encoding="UTF-8"?>
<svg fill="currentColor" id="Ebene_2" data-name="Ebene 2" xmlns="http://www.w3.org/2000/svg" viewBox="0 0 1000 1570">
  <g id="Ebene_2-2" data-name="Ebene 2">
    <g>
      <path d="M996.84,1570H9.4l-9.4-9.09V15.43c0-1.05,9.67-10.69,12.63-12.03L975.18,0l24.82,12.37-3.16,1557.63ZM984.3,1363.94V21.49c-8.72-13.78-13.48-3.03-15.67-3.03H18.81v1342.45l9.4,9.09h410.65v-115.15c0-3.21-37.66-9.91-43.53-45.8,5.6-163.45,1.7-327.37,5.65-490.82.58-23.96,17.21-70.92.85-91.23-9.72-12.07-43.17-10.29-49.53-30.92-14.59-47.31,16.21-129.52,8.09-166.29-6.92-31.34-72.9-53.32-77.3-60.86-4.26-7.31,13.12-47.5-16.77-35.42l-14.57,39.65c15.08,20.21,48.93,14.08,49.09,42.9.07,13.36-10.68,20.77-12.81,35.43-2.91,19.98-2.93,89.79.01,109.74,1.2,8.15,25.58,51.19,3.47,51.19h-147.33c-14.95,0,6.24-46.79,6.63-51.2,4.17-47.34,2.26-105.84-12.2-150.66l46.68-34.68c5.74-11.6-8.7-21.43-9.67-33.49-1.99-24.83,34.23-95.33,65.17-93.72,19.95,1.03,110.12,83.3,135.59,99.89,17.26,11.24,44.71,19.19,62.47,33.56v-93.94c0-22.95-42.32-46.53,9.54-81.78,53.05,27.39,14.88,61.49,9.66,94.28-1.54,9.68-4.89,125.39,18.38,99.59-4.49-60.42-3.07-98.63,50.02-136.5,32.07-22.88,71.9-28.41,106.41-5.59,29.17,19.29.63,36,2.96,45.51,3.08,12.61,30.65,34.26,36.63,50.11,12.22,32.38-1.49,15.15,22.57,50.07,22.4,32.52.79,45.26,3.6,57.53,7.81,34.14,31.15,63.09,35.13,111.4,18.23,221.16,1.5,483.11,5.74,709.55.5,26.55,7.31,52.3.3,81.59h244.51ZM457.67,554.83v696.98c0,3.85,17.68,10.97,21.98,15l9.36-8.94v-290.91c0-1.13,10.11-10.81,12.46-9.08-1.91,6.18,6.34,13.03,6.34,15.14v293.94l18.26-.44,6.81-57.14v-136.37h12.54v251.52c45.4,30.98,8.51-59.29,37.54-69.69,4.12,35.53-5.4,72.51,12.19,106.46,34.65-1.2,121.67,20.13,130.68-19.94,12.99-57.76-2.33-161.67-5.13-222.64-15.26-179.76,15.43-400.26-6.71-575.34-2.58-20.38-24.09-79.87-38.86-92.71-20.11-17.49-55.5-8.68-73.23-29.26-2.48-12.5,5.04-10.3,14.31-7.77,19.67,5.38,44.69,18.01,64.42,22.67,29.78,7.04-20.02-42.65-21.11-46.33-3.53-11.95.96-24.23-4.59-37.99-7.62-18.87-46.81-39.07-40.83-63.24l12.78-12.63c-101.57-55.83-163.45,63.69-125.37,148.37l-43.83-6.04c.47,18.35-4.13,34.97,5.9,51.86,3.5,5.9,34.55,37.57,44.43,30.18,46.8-55.41-6.3-96.09.67-156.91l26.36-10.25c62.24,67.2-6.03,128.26-14.15,185.67-7.49,52.94-2.26,167.2,19.57,216.39,6.85,15.43,29.82,35.26,29.91,37.63.15,3.8-9.21,11.23-18.86,6.25-7.19-3.71-30.06-43.25-33.24-52.73-11.15-33.22-11.93-157.92-19.62-168.91-5.51-7.88-36.92-16.86-41-2.8ZM244.54,351.8c11.26-51.21-62.98-54.68-50.21,0h50.21ZM369.85,400.27c14.31-35.45-5.05-49.12-34.39-66.94-21.66-13.15-40.32,21.72-34.29,30.3l68.68,36.63ZM438.86,1236.66v-687.89c0-2.82-25.85-18.15-25.69-48.53.18-34.42,23.62-28.82,25.83-37.54,3.83-15.09-2.65-41.05-.02-58.15l-50.2-28.5c-12.44,29.88-34.85,211.58-18.76,224.22l18.66.05c-.82-13.78,1.7-27.36,5.43-40.59,2.93-10.37-4.51-16.84,13.36-13.97,1.67,20.55-2.54,43.1.35,63.3,1.33,9.31,10.59,16.78,12.55,30.29,24.58,169.17-27.65,388.94-6.73,564.09,1.7,14.2,6.34,34.5,25.21,33.21ZM188.08,436.65c-20.23-2.31-23.26,3.05-25.4,20.9-1.92,16.04-.97,113.21,6.66,118.47,5.84,2.6,18.74-5.39,18.74-9.06v-130.31ZM231.97,436.65h-25.08v133.34l15.68,5.93,9.39-8.97v-130.31ZM269.58,436.65h-18.81v130.31l9.4,8.97,9.4-8.97v-130.31ZM467.07,1370h100.31l6.36-12.15c-51.81-16.67-35.24-27.4-46.69-70.07-19.93-.63-40.51-7.48-60-8.77-13.07-.87-8.09.14-9.41,9-2.01,13.45-3.89,78.02,9.44,82ZM438.86,1382.12H28.21l-9.4,30.3h275.85v12.12H28.21c-10.4,0-15.95,38.23-.27,40.88l207.18-2.1,9.38,15.76H18.81v30.3h275.85v18.18H18.81l5.85,27.71c12.71,8.93,23.89-3.47,28.63-3.47h931.01v-24.24h-235.1l-9.28-9.09,9.28-9.09h235.1v-30.3h-125.39l9.4-18.18h115.98l-9.4-36.36h-210.03c-.48-3.93,8.31-12.12,9.4-12.12h210.03v-30.3h-282.12c13.68,78.87,28.72,88.04-60.43,102.19-35.56,5.65-183.44,24.7-102.7-32.49l-24.84-18.18c-.69-16.38,86.56-27.15,102.79-32.79l3.67-18.73h-163v96.97l-18.81-9.09v-87.88Z"/>
      <path d="M551.67,60.92l-17.85,44.55,24.03,25.12c-16.86,24.39-25.79-11.23-39.81-8.69-7.86,1.42-17.98,24.57-35.27,17.75l19.11-33.6-18.99-36.1c14.16-21.69,25.68,18.68,40.44,15.2l28.34-24.23Z"/>
      <path d="M457.63,60.92c-.52,19.09.87,38.46.03,57.6-.41,9.33,5.89,23.99-9.31,21.1-14.12-14.83-20.24-78.56,9.28-78.7Z"/>
      <path d="M633.21,788.11c-48.25,7.5-98.66-132.3-81.47-151.43,27.44-.59,15.82,28.24,19.47,44.75,9.99,45.19,31.34,72.29,62,106.67Z"/>
      <path d="M670.86,612.38c4.17-49.32-3.87-92.77-18.81-139.34,23.73.05,27.09,35.04,30.54,52.24,3.87,19.32,19.1,88.03-11.73,87.1Z"/>
      <polygon points="689.63 1339.69 670.83 1330.6 670.83 1221.51 680.23 1212.54 689.63 1221.51 689.63 1339.69"/>
      <rect x="670.83" y="1103.33" width="18.81" height="84.85"/>
      <path d="M570.52,1145.75c7.67-9.82,11.39.07,12.55,8.99,2.34,17.87,6.29,65.74-12.55,75.86v-84.85Z"/>
    </g>
  </g>
</svg>