<?xml version="1.0" encoding="UTF-8"?>
<svg fill="currentColor" id="Ebene_2" data-name="Ebene 2" xmlns="http://www.w3.org/2000/svg" viewBox="0 0 1019.71 1562.66">
  <g id="Ebene_2-2" data-name="Ebene 2">
    <g>
      <path d="M1014.89,1562.66l-1010.35-2.42L0,15.17,11.48,1.78,1005.59,0l14.12,10.88-4.82,1551.78ZM1003.68,10.91H17.91v1541.08h985.76V10.91Z"/>
      <path d="M459.59,584.27c-10.57-32.5-162.03,16.9-188.72,27.39-6.03,2.37-13.38,2.04-15.85,9.64l120.12,292.18c2.41,67.35-77.78,113.15-142.85,111.03-59.37-1.93-139.59-48.39-129.75-111.07l120.09-301.68c-20.92-3.12-34.48-8.87-47.47-24.83-52.71-64.74,54.08-100.27,54.24-18.08,42.38,7.28,73.69-24.51,109.91-37.92,38.98-14.43,78.15-16.71,117.51-28.16,6.51-8.56,5-189.34-3.27-202.48-11.48-18.25-52.29-13.35-19.5-55.77,48.85-63.18,193.39-11.39,163.28,33.39-7.95,11.83-29.93,9.24-34.95,39.76-3.1,18.82-3.32,177.59,2.39,185.1,30.3,11.56,63.41,10.73,94.61,19.54,35.32,9.97,103.9,60.47,133.67,43.96,3.56-1.97.31-64.05,50.47-42.57,48.91,20.95-3.7,92.31-44.68,87.92,32.98,108.97,96.67,212.64,121.48,323.96-43.72,123.9-241.65,114.63-274.24-11.57l124.37-300.44c-61.09-29.14-131.35-53.95-202.04-48.41v797.84c0,7.24-47.87,105.28-54.31,105.85-13.86-1.8-54.5-82.44-54.5-87.65v-806.94ZM504.4,1415.48v-831.21l-32.01-9.1v803.91c0,4.88,24.86,31.59,19.27,45.5,1.79,1.73,12.13-6.84,12.73-9.09ZM549.2,575.17l-32.01,9.1v840.31h12.71c-2.85-11.89,19.29-41.79,19.29-45.5v-803.91ZM229.15,666.17c-9.59,1.49-12.4,11.11-16,18.21-35.34,69.74-54.85,157.13-92.83,227.36,2.7,13.36,96.9,15.25,108.83.15v-245.72ZM248.43,666.22l-5.19,238.39c4.79,22.97,90.04,19.58,103.6,15.12,4.65-1.53,12.69-6.27,7.81-11.31l-106.21-242.2ZM779.64,914.93v-248.76c-8.24,1.69-14.11,9.85-17.72,16.57-12.34,22.99-93.6,216.37-91.55,228.43,12.33,16.27,104.76,10.52,109.27,3.75ZM805.17,672.26c-25.87,10.34-6.33,36.92-6.93,52.22-1.69,43.33-16.3,142.21-4.51,180.13,7.98,25.65,108.82,23.2,106.62,2.33l-95.18-234.69Z"/>
      <path d="M499.21,60.92c38.11-21.97-1.36,30.73-1.16,38.14.37,13.69,25.47,20.92,19.11,39.23l-41.49-24.32c-4.32.05-12.34,30.97-28.85,24.32-6.29-18.52,19.46-26.47,19.46-39.41,0-12.94-25.76-20.89-19.46-39.41,19.3-1.26,24.99,27.8,45.08,15.23,3.62-2.27,4.79-12.33,7.31-13.78Z"/>
      <path d="M542.84,59.48c31.89-3.41,20.93,78.72,9.57,78.72-19.41-19.84-5.79-54.12-9.57-78.72Z"/>
    </g>
  </g>
</svg>