<?xml version="1.0" encoding="UTF-8"?>
<svg fill="currentColor" id="Ebene_2" data-name="Ebene 2" xmlns="http://www.w3.org/2000/svg" viewBox="0 0 1014.47 1575.33">
  <g id="Ebene_2-2" data-name="Ebene 2">
    <g>
      <path d="M12.71,1575.33c-2.13-.57-11.32-9.44-12.71-12.24L2.59,17.81c6.29-9.44,24.69-9.52,35.44-10.37,301.36-23.74,636.65,18.58,941.61-.12,9.62-3.59,34.82,8.53,34.82,15.55v1543.34l-9.6,9.11H12.71ZM992.07,25.92H15.91v182.28c62.91,13.16,76.63-50.18,119.33-77.98,22.72,1.84,30.89,14.75,27.96,35.47,19.89-19.72,69.78-9.42,54.83,18.21-10.83,20.02-51.33,8.03-48.49,30.35,91.55,23.93,148.82-35.09,227.41-61.34l21.13,21.95-30.89,27.21c31.2-2.68,68.57,4.13,98.81-.32,16.58-2.44,36.92-18.24,51.8-17.39,8.82.5,17.44,10.38,31.55,12.1,10.82,1.32,66.03-3.42,76.13-6.21,5.55-1.53,8.69-32.41,27.5-35.69,45.66,15.17,76.55,51.98,130.25,41.46-7.72-31.56-63.63-43.44-2.98-60.59,21.7.52,36.3,52.34,47.27,2.45l26.3.31,13.61,44.72c7.34,11.26,89.34-4.34,107.52-5.4-8.13-24.19,21.41-144.48-2.85-151.6ZM195.14,262.89h163.23c3.38,0,10.12-7.83,23.99-5.32,13.43,2.43,49.01,35.29,55.99,29.59,10.23-8.34-25.38-17.88-12.79-30.32l83.25-.06-12.82-39.86-159.99,9.47c-2.75-33.32,45.23-28.17,54.32-54.71-49.78,11.34-84.41,52.07-136.04,59.24-45.5,6.31-84.96-5.37-129.52-4.53-12.58-10.03,49.26-49.28,63.94-42.57,1.66-10.69-14.54-6.03-20.89-4.65-14.44,3.13-27.26,12.5-43.05,10.76l19.11-42.5c-44.57,26.14-67.53,91.26-127.99,78.96l.48,30c8.5,9.37,110.73,3.51,130.41,6.84,26.84,4.54,54.1,32.7,83.54,36.26,13.8,1.67,16.29-.7,1.68-7.7-13.43-6.44-38.35-10.33-36.86-28.9ZM678.42,208.2c-28.93,4.25-77.04,0-108.82,0-5.47,0-25.9,38.37-5.41,41.61l194.21.96-19.17,36.37c28.29-5.57,44.52-36.03,76.78-30.29l-12.71,42.5c19.78-8.02,20.79-28.35,41.51-36.48,43.35-17.01,103.88,4.51,150.47-6.04l6.4-60.74-117.55,5.21-16.95-41.66c-16.04.23,5.03,26.58-15.93,24.35-20.59-2.19-34.76-24.93-54.35-30.46-6.47,6.34,13.62,20.15,17.93,23.83,5,4.26,43.89,22.05,26.91,27.92-55.2,19.09-113.82-9.22-163.29-27.48l15.94,24.27c-6.83-1.75-12.72,5.67-15.99,6.15ZM726.42,262.89h-96.02c17.15,40.76-37.46,95.56-38.59,125.13-.53,13.76,13.12,20.97,11.85,28.6-.91,5.47-10.82,11.8-12.06,25.19-6.63,71.72,2.12,154.88-6.03,228.21,61.99,14.63,73.65-65.95,134.8-45.93,19.86,33.55-23.87,63.1-44.99,85.52-29.14,30.93-22.33,49.52-83.35,33.32,3.23,19.48-5.29,51.79.99,68.88,3.41,9.3,20.39,11.7,26.34,23.6,9.13,18.25,1.84,48.11,17.04,68.49.3,23.28-63.06,62.25-50.98,108.13,4.85,18.41,146.42,54.75,172.21,68.86,62.4,34.14,8.18,87.21-39.5,106.82-27.44,11.28-79.1,16.92-102.44,30.35-21.13,12.16-15.88,41.59-42.89,35.19l6.35-24.22-38.34,6.12c-2.56,36.35,35.91,60.16,43.28,95.54,6.49,31.13,4.66,75.01,8.33,107.66l-18.91,3.69-.76,30.05c-22.91,5.25-13.18-7.35-25.51-12.15l-.09,24.32c-23.98,6.19-12.75-15.27-31.86-12.15l-9.72,18.06-19.23-24.17c-23.83,42.12-20.67-10.72-28.91-25.72-5.73-10.43-18.15-6.96-23.93-33.52-7.42-34.15-8.97-71.35,1.83-104.66,5.61-17.29,30.22-46.93,19.45-61.3l-29.18-11.78-3.18,30.33c-19.02-38.65-38.97-25.25-72.42-34.58-51.25-14.31-217.83-61.67-128.92-126.04,31.32-22.68,142.5-57.27,159.48-87.11,35.55-62.5-66.63-113.72-69.89-150.57-5.63-63.68-20.96-58.04-46.41-107.79-50.43-98.6,81.47-84.92,145.55-83.49,21.58.48,46.25,13.29,67.03,3.32,24.8-11.89,22.16-108.52,25.57-133.66,3.51-25.86,23.25-109.5,19.12-126.53-1.21-5-13.08-1.98-13.5-13.04-1.17-30.71,17.31-88.91,6.23-120.91-42.32-40.38-52.98,25.32-72.88,26.92s-40.56-27.52-64.33-30.65c-20.69-2.72-35.18,6.43-50.72,5.91-24.46-.82-52.86-11.51-79.98-6.02l57.43,21.16c-26.96,75.24-123.22-15.15-150.28-15.15H60.71c15.1,21.6,32.18,47.61,3.2,66.72-21.83-20.04-22.62-51.38-3.2-72.73l-44.81-.06v1282.06h979.36c1.27-421.72,12.15-843.26,4.67-1265.52l-8.93-16.8c-43.73,6.92-103.13-16.37-142.82,3.42-25.42,12.67-27.94,74.66-73.73,9.08-32.54,21.38-62.72,60.85-86.21,8.95.74-9.33,43.67-14.29,38.18-33.35ZM611.17,275.07l-22.16,6.25-48.19,84.83c11.98,2.54,15.52-6.27,22.51-12.25,22.11-18.89,57.15-50.22,47.83-78.83ZM572.73,803.66l-.93-366.66-21.49-15.88c-19.97,1.19-39.09,145.72-34.16,169.04l24.53,9.94-6.3,15.22-15.25-5-9.17,9.13-20.61,138.24c42.1,3.68,58.47,15.59,83.38,45.96ZM707.19,633.56c-47.69,4.36-50.31,41.81-57.51,78.96,12.26-11.41,71.3-64.35,57.51-78.96ZM636.76,682.16l-44.95,8.95.23,21.47,19.11-6.22,3.22,18.28c14.99-11.96,26.24-22.09,22.39-42.48ZM476.78,688.22h-188.83c-2.47,0-13.32,12-14.76,16.5-11.82,36.95,45.41,83.59,50.89,122.26,45.69,15.64,59.05-38.15,62.26-71.15-2.36-3.55-54.95-12.41-37.55-31.13,5.65-6.07,18.42,10.51,23.46,11.22,6.85.96,13.44-8.43,23.34-9.41,39.49-3.9,88.68,20.55,81.18-38.3ZM470.36,749.01l-63.96,9.06c24.5,21.67,63.33,35,63.96-9.06ZM540.59,785.74l-46.82-11.88-26.59,35.76c-10.29-10.56-18.16-20.96-35.18-18.15.09,65.51-23.6-19.16-38.39-6.02l-.14,54.45c-15.63,6.63-31.59,4.91-47.85,6.46-9.29.88-18.75-5.28-15.96,8.82,6.4,23.18,28.06,18.7,31.68,21.95,1.92,1.72-4.62,11.86-2.4,17.75,3.88,10.27,20.32,23.75,24.99,36.35,18.69-6.74-10.68-40.98-3.13-54.63,20.04-4.83,18.27,35.84,25.67,42.48,26.92,4.4,1.02-29.09,6.33-42.48l31.91,36.42c5.08-32.66-22.08-70.31,25.63-78.96l3.13,72.98,19.28-18.3,25.54,30.32c20.41-14.64,3.02-36.23,3.33-54.62h31.96c5.25,4.73-32.7,72.74,9.57,60.68,11.9-3.4,4.14-30.39,22.45-34.01l-6.49-14.51,19.31-.1-12.76-24.12,19.03-9.24-40.94-15.41c-9.23,24.65-46.03,28.45-48.51.25l25.57-.09c-13.67-13.13-38.9-24.48,0-24.26l-.2-17.91ZM521.56,931.33c-43.54,1.22-65.18-12.02-107.49,4.5-9.53,3.72-17.4-3.7-14.06,13.64,34.41-14.4,63.46-10.86,99.25-12.12,7.75-.27,23.8,4.55,22.29-6.02ZM476.78,958.61v170.13c0,3.39,9.71,40.26,12.65,42.68,27.01,16.4,84.19,2.23,84.1,38.54l8.71,1.34c48.2-18.45,145.48-30.58,176.13-70.42,36.25-47.12-49.61-76.61-79.97-51.75-12.96-10.24-4.69-35.18-27.43-22.38-2.37,1.33,2.17,16.06-14.13,10.35l-.06-24.34-28.27,5.46-22.87-23.62c-14.74,42.93,46.99,67.53,82.78,76.3,23.74,5.82,48.74-4.91,64.38,17.87-8.07,6.87-23.73.41-34.5,3.82-10.36,3.28-9.06,16.34-10.39,17.37-10.28,7.95-22.02-25.05-41.54-30.29l-15.87,24.25-19.22-24.29c-2.16,5.51,6.94,50.8-9.61,42.5-31.43-25.66-15.08-25.13-16.37-51.2-.76-15.35-14.83-42.26-18.2-61.84-3.48-20.24,4.3-44.18-4.03-63.02-10.12-22.91-80.44-47.42-86.28-27.47ZM457.58,955.54c-21.11-2-45.93,2.25-56.39,22.45,1.74,34.58-12.3,68.12-14.26,101.89-1.06,18.32,9.68,79.36,6.5,82.17-1.35,1.2-9.81-1.52-13.94.36-8.54,3.91-.67,16.46-17.9,11.87l-.1-60.73-22.34,30.28-12.82-11.44-25.56,29.3c-6.92-10.93-57.73-23.03-25.59-29.76,43.98-9.2,109.79-39.09,99.14-91.28l-18.99,27.73-25.64-3.43-9.74,24.18-12.8-11.96-19.19,30.18c-18.6-31.83-91.91,20.38-77.06,42.7,6.62,9.96,124.28,57.68,141.45,60.32,10.97,1.69,46.6,2.74,55.88.47,5.81-1.43,6.63-12.8,15.23-17.03,10.79-5.31,32.82-8.46,40.66-16.5,11.76-12.08-5.54-65.17-6.48-85.1-2.15-45.39,1.44-91.3-.07-136.68ZM553.6,1210.71c-33.3-25.46-79.17-30.57-115.17-5.94l31.29,6.67,16.54,33.27,29.34-.35,13.23-32.84,24.78-.81ZM555.9,1324.16c-10.26-23.57-12.09-57.4-45.42-63.75-48.35-9.21-60.9,45.91-64.89,81.72-7.22,64.67,9.77,34.35,25.52,53.28,7,8.42,3.16,22.53,7.07,26.72,3.67,3.93,26.57.95,24.34,19.51,9.43,1.89,6.71-11.74,15.44-18.57,9.33-7.3,23.12-6.38,30.99-11.61,27.17-18.1,28.44-38.56,22.39-68.98-3.05-15.35-14.36-15.84-15.44-18.31Z"/>
      <path d="M463.92,323.68c12.79,15.47-2.15,64.83-22.25,60.7-20.86-4.29-3.65-65.06,22.25-60.7Z"/>
      <path d="M403.21,305.57c26.61,16.12-13.28,57.21-31.91,54.56-24.48-3.49,15.57-53.92,31.91-54.56Z"/>
      <path d="M899.2,281.16c12.08,9.24-2.55,70.71-31.92,60.69-8.18-11.5,16.9-72.18,31.92-60.69Z"/>
      <path d="M710.42,335.93c21.45,19.88,7.36,51.73-12.8,66.59-21.45-19.88-7.36-51.73,12.8-66.59Z"/>
      <path d="M238.73,395.23c-5.43,2.99-12.12.85-17.95,1.35-5.54-29.5,6.16-43.24,28.77-60.66,22.72,7.45-3.78,55.43-10.82,59.3Z"/>
      <path d="M188.7,311.53c5.05,29.55-12.59,52.33-44.74,48.55-1.84-24.6,19.06-46.86,44.74-48.55Z"/>
      <path d="M809.57,384.38c-31.37-3.57-27.82-39.72-19.07-60.7,31.37,3.57,27.82,39.72,19.07,60.7Z"/>
      <path d="M444.9,92.72l9.3-.09c36.04-39.39,45.27-19.54,15.84,15.62l19.52,39.16-29.25-18.64-41.1,18.64,19.25-39.57-19.25-30.18c12.2-17.93,23.6,2.79,25.69,15.06Z"/>
      <path d="M790.4,123.11c-25.22,13.52-68.27-43.73-41.44-48.6,17.07-3.1,47.25,30.37,41.44,48.6Z"/>
      <path d="M380.73,141.34c-31.5,2.72-41.31-29.5-38.34-54.62,31.5-2.72,41.31,29.5,38.34,54.62Z"/>
      <path d="M259.11,98.86c2.97,25.12-6.84,57.34-38.34,54.62-2.97-25.12,6.84-57.34,38.34-54.62Z"/>
      <path d="M655.98,153.49c-31.5,2.72-41.31-29.5-38.34-54.62,31.5-2.72,41.31,29.5,38.34,54.62Z"/>
      <path d="M944.03,111.02c12.85,30.89-50.69,77.13-43.67,34.58,2.4-14.55,25.09-38.93,43.67-34.58Z"/>
      <path d="M873.27,122.9l-18.68.21c-5.33-22.12-9.78-43.07,9.54-60.71,23.52-5.41,16.53,48.53,9.14,60.5Z"/>
      <path d="M688.05,147.41c-2.64-24.36,1.08-45.18,22.37-60.61,17.57-.39,12.94,72.28-22.37,60.61Z"/>
      <path d="M95.92,68.58c18.11,6.76,33.87,56.48,12.71,60.61-19.25,3.75-33.51-49.56-12.71-60.61Z"/>
      <path d="M185.53,68.58c24.6,13.7-.42,61.2-19.24,60.49-19.87-.75,2.63-56.32,19.24-60.49Z"/>
      <path d="M515.22,147.41c3.78-24.64-9.84-58.96,9.57-78.84,11.36,0,22.32,82.25-9.57,78.84Z"/>
      <path d="M303.44,177.43l-18.66.43,6.44-60.77c31.53,1.51,18.5,42.11,12.22,60.34Z"/>
      <path d="M579.17,147.41c-7.9,9.87-11.59-.11-12.78-8.97-2.92-21.68,2.06-47.69.08-69.98,24.71,14.96,8.27,55.29,12.7,78.96Z"/>
      <path d="M515.16,967.75l12.8,176.15c-16.77,1.38-10.6.79-12.56-9.12-8.31-42.24-18.55-116.86-13.03-158.04,1.19-8.87,4.89-18.83,12.78-8.98Z"/>
      <path d="M438.37,1156.02l-19.77-3.49c-13.51-17.43-2.88-117.65.31-145.56,1.19-10.4-1.24-20.03,9.89-27.07,22.18,54.62-22.77,119.98,9.57,176.12Z"/>
      <path d="M566.37,1344.47c2.76,10.61-7.38,12.77-9.66,21.34-1.04,3.92,5.26,13.25,3.17,14.89-1.96,1.53-13.35-2.18-17.43,1.37-4.02,3.49-1.75,15.33-7.6,20.2-1.18.98-30.01,2.87-31.32,2.06-3.04-1.9-3.39-12.06-7.21-14.46-5.09-3.2-14.63,4.65-18.31,2.49-3.76-2.2-8.53-26.82-26.84-23.72,12.82-19.85,44.3-1.01,72.33-7.25,15.19-3.38,24.58-20.36,42.86-16.92Z"/>
      <path d="M982.44,293.31c-3.26,26.43-18.9,53.41-51.16,48.53,3.26-26.43,18.9-53.41,51.16-48.53Z"/>
    </g>
  </g>
</svg>