<?xml version="1.0" encoding="UTF-8"?>
<svg fill="currentColor" id="Ebene_2" data-name="Ebene 2" xmlns="http://www.w3.org/2000/svg" viewBox="0 0 1021.29 1589.78">
  <g id="Ebene_2-2" data-name="Ebene 2">
    <g>
      <path d="M14.16,0h989.59l14.12,11.04,3.42,1535.59-12.81,43.07-992.73.08-15.75-9.47L.04,11.04,14.16,0ZM1001.84,1574.09V20.3l-9.6-9.23H25.68l-9.6,9.23v1553.79h985.76Z"/>
      <path d="M374.54,287.98c-2.01-20.08-26.5-38.07-3.27-55.2l82.49,23.03,52.9-53.53,57.51,53.53,91.99-17.03-12.77,49.2h227.24l9.6,9.23v138.46c0,1.3,16.09,2.2,25.21,9.51,33.24,26.62,55.53,130.25,58.26,171.75,4.07,61.98-12.63,148.57-83.47,77.19v298.45l-9.6,9.23h-300.85c-1.14,0-11.33,9.8-9.61,12.19,33.35,24.13,100.05,17.54,101.28,70.71,1.67,72.12-44.27,148.58-107.25,185.4,28.74,38.69-5.58,47.56-11.9,74.52-4.62,19.72-.67,45.07-.47,65.56l9.79,9.05c34.06-1.06,142.7,23.46,101.89,69.27-38.06,42.73-208.45,36.35-259.77,14.83-94.34-39.56,25.02-88.6,77.19-85.79,9.2-6,7.73-55.21,5.63-67.69-2.77-16.5-17.56-29.43-18.82-44.01-1.1-12.73,8.19-27.09,5.77-35.43-1.4-4.83-60.33-49.66-73.89-70.81-22.11-34.46-35.72-93.58-27.75-133.06,8.41-41.66,108.79-36.06,108.56-49.36-8.02-11.76-21.75-15.38-35.08-15.38H147.3l-9.6-9.23V297.21l9.6-9.23h227.24ZM630.55,257.25l-71.19,15.37-52.7-45.71c-54.11,70.16-45.88,38.35-109.91,30.38-23.66-2.95,4.11,55.39,13.85,60.64,58.33-3.42,128.38,7.4,185.13,1.16,31.91-3.51,29.78-37.13,34.82-61.84ZM630.58,306.44c.7,12.17-1.28,24.07-15.94,24.7-40.16-8.14-195.99,12.35-220.51-3.51-6.27-4.06-13.11-21.19-16.39-21.19h-220.84v683.05h300.85c1.29,0,2.41-13.47,12.32-21.86,17.18-14.55,59.51-21.17,39.35-49.27-3.12-4.34-26.18-21.17-29.27-21.17H214.51l4.99-29.05,282.9-466.48,19.02-2.63c13.76,23.02,41.48,91.21,60.82,104.63,10.62,7.37,33.69,10.51,50.28,19.36,16.08,8.58,55.94,46.81,59.76,47.42,9.65,1.53,19.08-14.9,30.99-15.49,13.1-.65,34.32,14.58,51.1,15.03,18.68.5,46.8-10.31,66.76-11.88-10.09-44.88,15.3-86.8,20.09-125.32,4.85-39.02-3.96-86.29-.2-126.34h-230.44ZM553.74,503.33c5.61-5.28-26.41-61.46-32.96-69.79-5.46-6.95-6.79-12.56-18.11-10.13l-51.26,98.42c27.6-29.72,65.22-15.68,102.33-18.49ZM880.25,632.61c-6.85,7.07,27.14,74.72,47.81,73.83,16.86-3.58,23.19-67.14,22.09-82.87-2.03-29.19-31.18-169.77-66.79-169.8-26.14-1.1-25.77,82.32-22.32,86.47,19.22,6.87,16.4-29.59,28.77-30.61,27.64-2.29-18.84,55.04-36.91,62.85-15.26,6.6-71.66,8.32-73.68,19.86l5.15,21.71c30.38-1.4,59.2-18.05,89.7-9.47,10.61,2.99,44.55,27.39,44.4,37.26-.36,23.59-31.35-16.32-38.21-9.24ZM585.77,761.81v-86.15c14.51-3.44,15.11,5.44,17.43,16.81,3.46,16.93,1.45,33.93,1.8,50.91h19.15s.06-67.69.06-67.69c26.16-4.71,1.66,32.57,22.37,42.92,24.11-18.28,4.29-48.03,9.64-73.69,19.08-4.68,16.72,18.78,19.24,30.73,27.61-12.04,8.37-98.67-6.59-110.71l-12.8,3.14,4.63,18.58-17.26,8.97c-4.88-22.56-4.41-65.82-38.45-61.45l12.77,42.98-19.13.06-12.29-51.74-19.72-3.64,19.26,70.65-19.26,3.19-19.87-79.4-37.74-.6c9.81,23.82,23.77,45.98,32.18,70.53,18.76,54.7,21.88,107.87,18.75,165.23l25.85,10.35ZM457.75,878.73c-9.74-43.46,27.81-42.96,48.26-61.26,33.62-30.09-39.71-47.08-47.22-72.5-3.59-12.14,3.63-23.56,1.84-33.34-6.9-37.68-21.38-80.41-22.32-119.33-.23-9.46,14.44-64.01,3.44-64.39l-208.03,350.82h224.04ZM726.56,577.23l-26.03,10.32,6.9,51.21h19.13s0-61.53,0-61.53ZM745.83,632.55c32.29-1,24.4-56.04-6.4-55.32l6.4,55.32ZM553.77,989.49h297.65l9.6-9.23v-350.76c0-17.46-63.29-1.25-73.94,2.76-14.61,5.5-28.05,20.45-39.59,23.48-24.28,6.37-48.4-9.08-51.64,30.74-3.32,40.68,110.51,158.13,107.56,210.7h-211.24c2.94,18.62,18.45,22.55,11.69,44.8-7.22,23.76-48.85,22.72-50.09,47.5ZM584.58,816.14c15.12-25.01-37.24-47.02-42.6-64.95-4.52-15.12,16.48-59.28-4.37-63.24-6.2-1.18-64.89,38.36-65.51,46.07,4.57,24.39,47.77,32.49,53.42,51.9,16.56,56.9-46,49.46-48.27,77.29-2.39,29.27,56.88,32.56,56.85,67.84-.02,32.71-47.9,36.39-61.74,61.48-3.04,20.88,94.92,46.94,49.17,92.18-9.75,9.64-38.34,13.48-44.55,27.8,34.73.12,65.24,5.54,93.13-18.05,62.76-53.08-42.66-62.7-40.69-100.79,1.94-37.49,54.2-34.96,59.89-59,1.19-25.18-30.71-29.21-44.66-44.05-34.65-36.84,5.12-60.93,39.92-74.47ZM556.97,878.73h227.24l-99.3-166.23-92.61,64.68c38.39,39.94-13.45,55.25-41.89,76.8l-3.01,15.38,9.57,9.37ZM643.35,1106.45c-65.25,18.05-132.25,26.73-199.98,16.86-17.12-2.49-100.17-37.96-61.97,10.35,13.11,16.58,67.01,15.81,89.11,15.86,10.78,7.72-.66,11.12-9.41,12.26-22.55,2.93-45.62-.79-67.33-6.12-1.1,10.66-1.39,20.12,10.54,23.65,3.02.89,89.08,6.56,42.97,18.58-14.61,3.81-39.33-7.91-34.33,13.05l76.78,12.47-38.36,15.28c32.62,28.75,82.04,26.4,115.16,0l-31.94-3.08c-5.06-28.93,62.59-15.54,70.29-24.78l.04-18.24-44.75-.09c13.48-27.14,70.72,6.28,63.95-36.83-21.7,5.33-44.78,9.05-67.33,6.12-8.75-1.14-20.19-4.53-9.41-12.26,38.96-1.95,95.78,7.18,95.96-43.07ZM540.94,1297.14c10.23-37.06-79.08-34.67-60.74.07l60.74-.07ZM534.53,1309.51h-51.13c-8.22,33.93,57.33,36.86,51.13,0ZM585.74,1469.44c-29.87,1.42-63.16-30.78-64.43-58.52-.34-7.43,13.99-70.74-15.46-64.49-16.33,3.47-7.23,59.26-11.05,75.59-4.48,19.16-34.4,46.46-56.23,47.42l19.17-30.67c-61.04-2.05-129.39,35-33.45,59.78,47.11,12.17,160.33,11.53,201.42-12.2,49.93-28.84-36.48-52.97-65.55-47.58l25.57,30.67Z"/>
      <path d="M446.16,61.79c38.89-22.74-1.31,34.4-1.33,38.63-.08,13.28,25.75,21.25,19.28,39.84l-35.17-24.48-25.6,24.38c-24.93-16.85,9.76-23.45,9.68-39.76l-19.25-40.08c19.3-1.28,24.99,28.2,45.08,15.44,3.62-2.3,4.79-12.5,7.31-13.98Z"/>
      <path d="M566.66,103.35c12.84,9.03,32.1-33.38,32.01-43.04,4.71-3.34,18.73,5.23,18.96,9.17.25,4.42-39.33,79.21-50.96,70.79l-32.06-79.95c10.23-10.87,33.74,34.45,32.06,43.03Z"/>
      <path d="M499.36,60.42c14.32,0,14.32,79.75,0,79.75-16.56-9.45-12.53-79.75,0-79.75Z"/>
    </g>
  </g>
</svg>