<?xml version="1.0" encoding="UTF-8"?>
<svg fill="currentColor" id="Ebene_2" data-name="Ebene 2" xmlns="http://www.w3.org/2000/svg" viewBox="0 0 998.44 1577.23">
  <g id="Ebene_2-2" data-name="Ebene 2">
    <g>
      <path d="M.67,295.66c0,.84-.13,1.66-.35,2.45-.02.83-.12,1.66-.32,2.46h.55v1276.66h985l9.52-20.67c-1.57-433.26,1.16-869.25-.61-1300.71-.29-70.95,8.67-167.21.61-234.29-1.05-8.73-.76-15.41-9.52-20.67h-325.26c-.19,0-.6-.25-1.15-.67-9.84.12-19.67.48-29.52.51-1.13,0-2.16-.15-3.09-.43v.59h-257.76v-.44c-9.59.67-19.25-.23-28.85-.28-.65,0-1.25-.07-1.84-.17v.89H22.16c-1.81.3-3.61.64-5.4,1.03-2.9.65-5.74,1.46-8.54,2.45-.09.03-.17.06-.23.08-.62.28-1.24.56-1.84.87-1.12.57-2.18,1.22-3.22,1.9-.03.02-.04.03-.06.04-.05.05-.1.09-.16.15-.37.36-.76.71-1.14,1.07-.01.01-.06.07-.13.15.14,1.78-.16,3.6-.89,5.22v262.74H.19c.31.92.48,1.89.48,2.89v10.69c.28,1.4.28,2.85,0,4.25v1.24ZM13.8,991.89l-1.3-299.05,9.56-26.63c39.95,104.68,111.53,196.83,205.44,260.7-47.68,55.04-104.93-25.03-141.35-59.76-5.71-5.44-11.93-19.02-13.18-19.75-6.33-3.74-22.14-4.03-17.15,7.5l36.61,42.19,73.74,65.69c-7.35,19.76-78.52,16.33-105.57,22.79-16.81,4.01-40.77,25.64-46.82,6.31ZM972.27,1565.46l-100.22-.25c2.79-23.54,19.52-33.87,27.69-59.81,7.53-23.93,15.25-114.51,27.8-122.94,4.71-3.16,12.36-3.1,18.14-3.09,9.62-9.3-49.11-47.61-49.11-26.91v101.89c0,6.48-10.36,43.53-13.66,52.59-19.08,52.38-48.11,52.72-99.64,58.53-185.52-11.09-380.97,11.57-565.1.01-15.9-1-64.92-6.65-74.67-14.06-12.89-9.79-38.61-69.81-38.61-85.08v-116.88c-21.81-3.35-38.1,10.68-55.21,20.95,5.04,9.66,23.34,5.97,29.55,19.1,19.41,41.08,1.63,129.32,50.09,166.74-4.62,7.04-6.12,6.04-12.79,6.63-32.25,2.82-65.25-.05-97.35,2.35l-.53-541.24c46.63-35.19,99.72-35.26,155.27-26.64,15.68,2.43,77.02,23.02,81.2,22.49,4.01-.51,13.27-10.44,3.26-15.06l-72.19-19.44-7.63-13.39,193.18-90.11c28.01,39.58-3.13,67.79-12.46,107.7-9.38,40.1-16.62,92.87,12.58,126.05l21.42-17.87c2.89,39.18,21.18,82.47,58.4,101.85l12.23-47.79,30.78,65.78c17.93,4.04,22.97-51.72,36.73-59.79l15.42,29.83c13.6,10.1,35.73-92.17,36.82-101.86,14.27-1.11,15.72,50.08,30.52,35.93,12.09-11.56,14.33-97.15,12.3-116.8-4.4-42.65-42.52-85.04-6.25-120.32l190.39,102.31c-19.29,7.76-40.66,11.78-60.12,19.42-9.28,3.65-16.61-3.51-13.46,13.48,80.23-10.71,179.17-52.61,242.25,18.14l1.54,511-8.56,16.54ZM315.14,652.76c13.75-92.98,48.29-46.83,106.54-35.25,77.6,15.43,158.08,4.85,229.55-26.69,29.04,43.41,35.5,98.82,22.72,148.63-14.18,55.27-66.35,96.98-78.19,154.47l-30.56-17.93c11.21,40.65,41.07,71.99,18.77,117.23-18.48,4.29-67.62,9.34-73.38-13.52-8.74-34.68,50.04-20.3,58.06-31.39l2.03-23.8c-33.16-17.52-47.68,10.62-70.83,28.44-20.33,3.88-42.16-44.67-69.5-32.25-9.87,4.48-16.27,14.24-6.79,24.57,13.17,14.35,63.03,4.29,61.09,28.5-2.32,28.96-63.32,28.57-76.12,16.22-33.77-32.58,28.35-106.73,21.6-114.01l-36.72,23.93c-32.56-96.61-94.92-134.48-78.26-247.16ZM255.24,624.23h-88.99c24.45-32.91,62.81-66.28,107.37-66.38,15.49-.04,65.06,6.44,58.56,27.19-1.27,4.05-72.61,39.19-76.95,39.19ZM253.11,313.51c7.56-4.62,31.15.96,42.04-.92,11.24,11.21-46.16,98.82-73.68,50.77,8.47-6.71,29.09-48.29,31.64-49.84ZM203.27,363.69c-10.73,6.53-23.74,4.36-30.74-6.14l13.22-37.92,47.98-7.04c2.27,1.95-27.89,49.53-30.46,51.1ZM313.58,318.53c15.78-5.03,68.23,17,55.03,35.73-24.32,4.46-46.94,25.17-55.66,47.8l-35.9-11.92c-3.09-31.46,44.09-36.75,36.54-71.61ZM387.18,351.12c8.65-3.81,49.57,29.2,30.88,42.4-14.05,10.4-32.47,7.05-47.67,13.52-14.87,6.32-20.84,25.72-38.37,25.37-21.6-47.02,32-51.31,55.17-81.28ZM448.04,402.91c1.98,1.39,20.02,40.22,6.81,44.58l-98.3,26.86c-31.81-43.99,82.44-77.79,91.5-71.44ZM472.19,509.48c-36.48,3.15-66.83-11.77-103.38.84-7.04-49.09,70.16-36.62,104.23-47.92l-.85,47.08ZM485.35,522.37l.03,35.96-110.43-27.02c34.75-21.9,73.85,4.06,110.4-8.93ZM360.56,553.14c26.99-8.36,110.56,28.11,163.16,21.58,15.72-1.95,128.79-42.4,121.16-7.57-42.66,43.25-128.72,43.89-187.34,39.32-22.41-1.75-102.04-16.21-107.11-39.32-1.5-6.6,4.25-12.19,10.13-14.01ZM773.84,372.44c-25.15,21.8-90.12-42.64-67.69-57.02,9.46-3.38,27.39-6.18,35.71-1.5,3.78,2.13,37.85,52.15,31.98,58.52ZM761.59,315.52c9.06-6.77,41.12-2.65,47.55,4.56,2.89,3.24,16.24,44.12,13.75,46.39-39.85,9.54-38.74-28.52-61.3-50.95ZM724.62,381.49l-28.67,20.2-69.39-56.25c-3.17-14.04,51.21-30.06,55-26.75,1.88,27.1,25.25,44.91,43.06,62.8ZM674.71,412.49c-16.46,42.02-30.09,2.94-49.78-5.46-17.49-7.46-40.6-2.25-53.64-19.71l33.77-38.71c20.09,26.71,58.6,30.2,69.66,63.87ZM644.91,468.36l-103.73-18.46c-3.82-13.62,2.35-48.06,20.72-47.64,36.3,18.2,87.47,11.27,83.01,66.09ZM632.64,510.32c-24.29-14.7-109.75,13.77-114.18-14.71l13.37-32.53c37.45,10.76,94.83-3.72,100.81,47.24ZM519.93,522.83c32.04,11.55,71.73-14.77,100.35,8.5,0,7.06-151.9,54.94-100.35-8.5ZM663.6,570.63c66.61-27.85,126.34-2.43,165.45,53.6h-88.99c-8.11,0-59.39-36.39-76.01-36.64l-.46-16.96ZM465.19,1048.52c49.81,7.61,66.35,1.79,103.78-25.05,4.37-3.13,31.02-36.57,39.12-27.6v77.86s-36.76-17.92-36.76-17.92c-3.03,20.23-3.84,68.74-15.54,83.72-11.9,15.23-23.38-11-39.66-5.83-1.79,11.9-4.5,42.22-15.49,47.9-11.36,5.87-14.96-44.63-27.23-49.47l-15.72-10.1c-15.71,1.59-11.6,56.64-27.45,41.62l-33.94-107.84-27.46,17.95,6.11-89.87,90.25,64.64ZM494.59,990.14l46.02,35.61c-28.5,2.89-48.18,6.84-76.76-.09-31.09-7.53,25.45-20.8,30.74-35.53ZM982.48,998.84l-12.52,6.43c-46.6-33.23-105.58-9.07-153.18-33.5,30.26-30.78,66.85-57.05,95.21-89.73,4.73-5.45,32.18-37.95,27.5-42.01-23.52-3.07-33.75,29.3-48.91,45.08-30.33,31.55-89.96,99.86-128.93,47.79,68.43-57.14,131.18-116.15,176.66-192.98,15.81-26.71,21.18-60.39,44.17-79.73v338.64ZM687.9,12.87h288.44c-1.99,5.89,6.14,13,6.14,14.98v221.77l-12.17,6.07c-39.65-14.19-23.62-43.11-37.55-65.39-4.58-7.32-49.48-38.7-58.15-39.65-10.92-1.19-21.96,5.98-29.53,4.72-2.45-.41-38.03-27.73-39.24-29.85-3.86-6.75-.38-23.43-4.02-35.08-3.32-10.59-48.14-48.32-58.48-51.25-18.83-5.34-58.43,12.38-55.43-26.31ZM921.06,216.53c-9.66-1.08-18.58,12.74-26.69,11.46-4.08-.65-41.84-29.82-40.44-37.6,7.05-39.13,75.36,14.66,67.12,26.14ZM12.83,27.86c0-1.98,8.13-9.1,6.14-14.98h288.44c3,38.7-36.6,20.98-55.43,26.31-10.34,2.93-55.16,40.66-58.48,51.25-3.65,11.65-.16,28.33-4.02,35.08-1.21,2.12-36.8,29.43-39.25,29.84-14.2,2.39-21.86-10.95-47.66,2.15-3.93,2-38.28,30.01-40.04,32.77-10.13,15.9-3.48,35.24-18.82,53.53-6.52,7.77-30.88,20.74-30.88,5.81V27.86ZM141.45,195.04c-11.3,10.16-38.97,38.83-53.69,32.02-1.08-.5-15.55-15.44-13.53-19.33l46-38.88,21.22,26.2ZM16.02,294.69c3.48-7.5,37.74-36,46.16-38.83,34.6-11.62,57.51-3.75,88.97-38.98,18.97-21.24-2.58-51.65,43.6-71.3,39.85-16.96,94.92,2.3,20.84-46.43,13.47-37.59,79.32-54.08,61.14-2.42,35.54,5.64,17.25-27.6,30.19-45.38,1.78-2.44,45.43-34.64,49.24-35.83,19.76-6.14,254.62-6.64,278.28-1.4,6.72,1.49,50.81,32.9,53.94,37.22,11.17,15.41-1.06,39.73,21,51.3l15.42-41.82c13.51-8.98,100.23,54.3,18.29,53.96l2.77,18.28c18.51,9.22,33.64,3.55,54.69,12.51,44.47,18.92,25.3,49.31,47.38,73.61,3.96,4.36,37.38,29.5,42.21,30.95,15.94,4.76,29.16-2.85,37.35-.13,7.28,2.41,51.23,40.5,53.72,48.79-2.31,83.03,7.86,173.57.47,255.74-13.72,152.62-112.72,281.85-236.82,368.54l-118.05-56.78c7.14-36.45,38.9-61.79,53.44-96.68,14.56-34.93,13.35-60.8,16.68-97.59l6.25-5.7c24.18,31.13,147.96-1.51,156.15-27.9,5.71-18.4-69.79-78.07-89.23-85.5-43.1-16.47-85.29,4.52-108.49-1.44-37.46-9.62-6.3-85.37,10.79-107.19,67.59-86.28,209.86-85.07,218.07,42.06,38.57-9.53,38.88-59.47,28.87-91.21-42.9-136.03-267.74-121.76-354.02-31.46-38.6,40.4-43.13,72.02-60.9,120.33-3.1,8.43,2.03,10.19-12.89,8.37-12.56-131.74-130.24-205.74-260.78-197.68-82.86,5.12-167.01,56.18-156.7,146.88,1.34,11.75,17.81,60.91,33.84,38.77,13.5-18.65,3.79-57.26,40.12-80.69,81.25-52.38,213.68,34,207.94,126.15-2.2,35.28-39.45,20.33-57.51,20.23-52.85-.31-68.01-1.84-110.57,30.4-16.16,12.24-62.58,50.24-46.06,68.67,29.8,33.25,112.16,39.99,153.28,27.11-2.98,31.09,2.64,57.81,12.12,87.06,12.32,38.03,45.52,70.9,54.52,102.72,3.18,11.24-.67,6.4-6.88,9.28-21.06,9.75-80.14,40.1-96.56,44.14-21.62,5.33-45-17.05-61.43-30.38C3.14,727.74-.89,525.27,16.02,294.69ZM829.09,330.57c15.15-8.78,64.04,33.76,55.17,41.9-27.55-2.02-50.38-12.9-55.17-41.9ZM166.23,330.57c-1.91,28.6-28.25,42.1-55.17,41.89-8.89-7.76,39.48-50.59,55.17-41.89Z"/>
      <path d="M549.82,1409.41c-11.97,3.58-29.33,72.2-38.64,88.13-28.92,49.51-44.04-74.36-62.51-85.25l-86.01-2.91,15.17-22.3c30.38,21.94,90.6,13.72,48.79-25.51l-39.38,23.87,35.75-49.8-41.98-102.9c8.99-11.29,7.08-7.42,16.39-4.27,28.19,9.54,62.73,49.09,88.31,58.03,34.19,11.96,91.15-51.85,125.41-62.94,19.35-.43-43.3,110.08-33.05,121.88l79.14,63.98h-107.4ZM479.23,1295.61l-67.46-36.02,27.72,71.94c9.63-1.65,47.31-25.83,39.74-35.92ZM589.68,1259.59c-5.69-5.57-73.51,40.24-73.5,44.92,6.62,8.26,40.37,34.13,48.92,26.98l24.58-71.9ZM495.68,1314.45l-50.66,41.21,21.85,38.86,63.72,2.1,21.45-43.37-56.36-38.81ZM614.26,1397.36c-11.4-21.14-56.96-52.7-60.6-13.94-2.07,22.05,46.83,12.26,60.6,13.94ZM522.22,1409.43h-49.12s18.49,71.89,18.49,71.89c17.95-1.68,35.67-66.96,30.63-71.89Z"/>
      <path d="M430.92,121.64l-6.61,14.19c-41,1.61,3.33-20.29,5.2-30.91l-23.78-35.12c20.12-27.07,24.37,18.82,39.7,14.98,8.37-5.2,11.88-26.1,24.52-23.94,23.62,4.05-16.21,36.28-14.83,44.1l24.01,24.8c-16.78,25.08-29.4-19.02-48.2-8.11Z"/>
      <path d="M577.4,60.85l-31.33,77.22h-17.05l-31.33-77.22c21.5-4.57,29.41,47.8,39.86,47.8,16.81-12.1,14.94-46.97,39.86-47.8Z"/>
      <path d="M448.53,780.04c-25.93,4.04-15.69-33.25-18.37-35.95l-41.59-4.34-32.01-34.51c53.51-33.53,97.09,24.88,91.96,74.8Z"/>
      <path d="M546.81,780.07c-10.25-50.89,40.99-114.36,91.87-74.92-11.23,7.4-26.44,31.45-36.79,35.88-12.16,5.2-29.35.52-37.15,5.68-9,5.95-1.97,30.06-17.94,33.37Z"/>
      <path d="M503.76,798.08c4.98,29.13-14.88,68.49,18.33,80.88.7,10.99-46.76,15.53-48.98-2.87,30.96-3.07,15.32-45.7,18.4-69.16,1.15-8.73,4.68-18.6,12.25-8.85Z"/>
      <path d="M571.27,654.23l-49.03,47.89c-2.39-28.12,22.58-46.72,49.03-47.89Z"/>
      <path d="M459.35,667.68c3.02,2.72,13.77,26.56,13.84,31.39l-15.44,3.19c-5.74-24.58-17.85-29.74-39.84-39.04,5.6-13.64,36.38-.09,41.44,4.46Z"/>
    </g>
  </g>
</svg>