<?xml version="1.0" encoding="UTF-8"?>
<svg fill="currentColor" id="Ebene_2" data-name="Ebene 2" xmlns="http://www.w3.org/2000/svg" viewBox="0 0 976.58 1570.61">
  <g id="Ebene_2-2" data-name="Ebene 2">
    <g>
      <path d="M6.44,1570.61l-6.44-32.93L.05,45.36,7.89,13.83c11.51-8.1,24.95-6.85,38.19-7.74,290.7-19.47,603.47,15.31,896.51.02l33.98,10.31-.49,1554.2H6.44ZM963.82,24.48h-144.22l-107.63,111.74,98.31,120.78-279.19,208.31-21.34-36.16c-9.63,32.71-37.22,62.1-36.9,96.62h92.06c2.89-16.07-7.62-23.5-18.3-33.22l371.56-208.32c5.52-11.74-88.28-112.96-82.52-134.78,4.66-17.65,118.94-75.58,126.87-99.07,2.77-8.2,1.17-17.44,1.29-25.9ZM448.27,66.78l-33.72,24.03-33.72-24.03c-4.94,16.5,16.43,28.87,17.59,40.27s-24.01,20.42-17.59,38.19c17.1,7.44,29.49-20.88,39.8-18.1,7.22,1.94,6.97,26.43,27.65,18.1l-18.49-39.35,18.49-39.1ZM515.74,115.06c-7.24,5.66-44.47-72.73-49.04-39.12-.73,5.39,22.56,48.33,27.69,57.45,3.88,6.9-.64,14.07,12.33,12.06,18.12-2.81,39.75-59.82,39.75-78.67-10.44-12.91-32.91,42.88-30.73,48.27ZM589.43,145.3c-3.57-24.53,9.39-58.66-9.18-78.43-15.08,0-7.68,65.99-9.18,78.43h18.36ZM18.71,72.79v1377.03l263.09-64.2,42.75-852.86c-98.8-32.22-161.69-112.92-153.13-217.72-96.08-17.09-125.85-114.49-73.08-190.95-12.02-12.24-31-12.35-45.03-21.94-14.83-10.13-16.43-28.85-34.61-29.35ZM963.82,1449.82V193.58l-54.61,45.26c8.15,14.01,39.42,38.74,28.94,56.4-4.23,7.12-86.78,41.58-103.6,58-33.35,32.55-39.98,87.72-98.31,132.76-15.71,12.13-67.41,36.32-73.22,42.69-5.07,5.57-6.91,10.36-6.4,17.86l48.73,845.42,258.47,57.85ZM558.77,205.66l-88.91,54.08-72.88-35.62-35.6,77.16c-16.21,3.13-103.03-1.44-103.23,16.12l76.55,79.14,224.06-76.13v-114.75ZM638.56,543.88h-294.58l-49.13,851.6,36.85-.02v-144.95c33.22,3.05,11.79,51.09,11.89,75.5.09,24.26,8.1,45.44,6.51,69.47l30.15-.54c13.79-8.95-15.35-98.46,18.95-96.11v96.63l36.86.03c5.81-5.63-10.45-72.97,9.17-84.46,15.52,0,7.32,71.54,9.17,84.46h61.43s3.1-78.61,3.1-78.61c26.68.5,11.55,63.45,15.25,78.61h36.89s1.21-86.94,1.21-86.94l17.17-9.72v87.57c9.94,13.65,28.04,8.63,42.96,9.06v-135.89l18.41-9.06v144.95l36.85.03-49.13-851.62ZM884.04,1449.82c-1.86-10.9-12.41-10.39-20.59-12.96-32.49-10.21-95.07-21.18-129.5-23.55-144.79-9.96-472.6-14.28-604.85,21.33-8.05,2.17-29.49,5.73-30.61,15.18h785.54ZM27.92,1504.18h935.9c.99-31.93,7.06-39.06-27.56-42.28-286.64,12.13-586.75-16.09-871.79-.29-15.56.86-30.2,3.11-45.12,6.89l8.56,35.67ZM963.82,1522.3H18.71l-.03,30.23c172.87.1,345.92-.13,518.87-.28,32.42-.03,65.2.09,97.68,0,109.53-.29,219.17.7,328.62.28l-.03-30.23Z"/>
      <path d="M396.14,1153.88c-21.04-5.06,5.38-24.54,21.21-18.37-2.6-52.8-7.63-172.65,70.98-169.45,38.63,1.57,37.44,33.19,67.67,49.01l-3.3,36.14,36.73-24.13c-.27,16.56,1.62,33.37-1.43,49.87-4.72,25.55-46.35,68.17,1.43,58.84,2.63,5.63-5.44,18.09-9.18,18.09h-184.11ZM442.17,1135.76h95.12c17.97-19.61,37.56-44.82,33.69-72.47l-49.01,30.16,9.12-42.3-49.04,48.26-3.13-36.11c-6.53-8.13-45.34,63.86-36.76,72.47Z"/>
      <path d="M386.94,870.02c-6.61-22.44,26.15-7.6,30.72-12.05-3.37-46.54-6.52-175.75,64.41-175.52,47.74.15,40.85,45.68,76.72,48.76l-6.09,42.18,36.73-24.13c5.62,40.28-7.25,70.71-24.58,105.6.04,8.28,32.51-6,24.61,15.16h-202.52ZM442.17,857.94h95.12c16.08-21.13,36-44.18,33.72-72.45l-39.86,30.05c-19.3-11.58,2.96-28.13-.06-42.22-27.53,5.39-30.13,47.32-58.22,42.3l6.21-27.05c-20.27-13.4-41.15,65.13-36.92,69.37Z"/>
    </g>
  </g>
</svg>