<?xml version="1.0" encoding="UTF-8"?>
<svg fill="currentColor" id="Ebene_2" data-name="Ebene 2" xmlns="http://www.w3.org/2000/svg" viewBox="0 0 978.72 1561.53">
  <g id="Ebene_2-2" data-name="Ebene 2">
    <g>
      <path d="M2.93,1561.53L0,15.53,15.34.43l945.27-.43,18.11,12.38v1540.1l-9.21,9.06H2.93ZM960.31,15.39H15.2v1195.84h337.54c4.92-32.27,31.6-68.12,40.09-96.44,4.2-14.02,1.68-28.85,5.61-42.79,3.78-13.39,26.16-74.67,25.19-78.69-11.47-47.64-63.32-47.19-103.78-66.79C-43.86,750.31,95.44,190.34,527.92,220.47c370.11,25.79,469.25,542.78,133,705.19-35.43,17.11-100.13,24.36-110.71,66.73-4.92,19.71,32.88,93.09,26.32,122.42l49.31,96.42h334.47V15.39ZM573.7,933.38c258.89-57.11,359.47-369.98,190.04-570.53-118.88-140.72-341.86-165.53-490.25-54.01-11.31,8.5-90.83,82.43-80.28,93.06l82.58-42.48c62.51-20.43,123.6-19.27,184.52,6.1,72.82,30.31,173.01,128.6,104.43,205.92-9.44,10.65-32.93,11.37-18.14,30.34,51.18,11.4,25.39,15.66,21.98,33.81-.93,4.97,15,28.03,15.93,42.73,2.61,41.31-60.33,101.28-93.93,122.01-99.07,61.11-224.91,44.99-306.65-35.98-2.17,15.7,23.72,45.64,36.78,60.44,45.92,52.03,110.16,91.2,177.96,108.73l3.48-78.31c21.22-8.47,31.32,16.47,45.81,17.97,13.74,1.43,26.19-9.91,37.67-10.57,13.71-.78,26.88,11.79,41.73,10.4,13.7-1.28,27.07-22.4,42.61-17.83,23.52,6.91.81,75.36,3.72,78.21ZM346.6,1223.32H24.41c-11.56,0-11.56,30.2,0,30.2h251.62l6.2,12.08c-7.72,12.4-14.29,0-18.47,0H30.54c-1.62,0-14.31,6.22-15.64,10.12l9.5,32.16h211.73v12.08H30.54c-1.33,0-14.97,6.49-15.73,9.88-2.09,7.29,2.94,26.36,9.6,26.36h128.88c1.07,0,9.67,8.16,9.21,12.08H24.41c-9.18,0-12.91,27.79-6.54,36.67,6.58,9.17,47.81,6.21,61.72,5.54,52.4-2.53,106.82-5.93,159.1-5.14,11,.17,53.55-.12,46.55,17.29H24.41c-29.97,38.64,13.67,39.2,46.06,36.26v18.07s-55.3,0-55.3,0l.03,30.23h171.84c-1.45,29.63-19.55,12.08-27.62,12.08H30.54c-2.12,0-7.14,5.77-11.53,5.73l-3.84,18.4,162.78,4.56c72.74-6.44,143.72.83,215.36.94,12.22.02,23.46-5.77,35.91-5.77l531.06.26c2.57-6.74-2.63-24.13-9.18-24.13h-135.02c-2.47,0-10.28,7.9-18.26,6.09l-9.23-9.11,9.08-9.06h162.63v-30.2h-309.92l-9.08-9.06,9.08-9.06h309.92v-36.24h-263.89l15.56-18.36,248.37.28-.03-36.27h-147.29c-.46-3.92,8.14-12.08,9.21-12.08h135.02l9.43-15.12c.41-6.19-12.79-21.12-15.56-21.12h-211.73v-12.08h220.93c-.44-14.68,4.66-32.49-9.21-42.28h-233.21c-2.28,0-8.77,9.3-15.38,3.3l-6.1-15.38h263.89v-30.2h-337.54c7.1,65.95,12.64,163.52-57.04,200.55-50.29,26.73-192.76,83.28-246.75,83.28-17.76,0-135.95-16.66-113.51-48.22,7.34-10.32,125.31,20.21,178.25-8.83,48.72-26.72,11.45-24.51-9.1-52.05-2.95-9.33-28.03-47.01-28.03-50.92v-123.81Z"/>
      <path d="M365.97,80.67l13.98,1.37,27.96-24.36c4.83,16.39-16.26,28.7-17.35,40.21-.96,10.13,24.61,31.72,17.38,38.27-14.49,13.13-21.09-23.16-39.59-18.33-2.31.6-15.38,30.45-27.86,18.33-7.55-7.33,20.17-23.31,18.3-33.03l-18.35-36.25c12.44-18.09,20.36,2.68,25.53,13.8Z"/>
      <path d="M463.28,142.21l-36.87-78.47c28.53-12.95,33.49,56.3,48.97,42.22,4.19-18,13.12-39.6,30.72-48.29,7.87,14.08-34.6,90.77-42.82,84.54Z"/>
      <path d="M549.1,136.22h-18.36c1.5-12.43-5.9-78.43,9.18-78.43,18.57,19.76,5.61,53.9,9.18,78.43Z"/>
      <rect x="622.8" y="63.68" width="18.36" height="72.54"/>
      <path d="M579.88,142.22c-8.97-28.13-1.26-56.11,2.97-84.52,13.86,17.64,17.33,71.11-2.97,84.52Z"/>
      <path d="M546.06,1507.18c2.19.55,10.75,9.93,9.19,12.01-39.98,12.55-82.28,2.98-122.72,0-1.79-2.17,8.02-12.01,9.19-12.01,25.1,0,85.12-4.81,104.33,0Z"/>
      <path d="M745.54,1507.2l-.06,18.06-67.47-6.08c12.01-21.9,46.91-8.84,67.53-11.98Z"/>
      <path d="M635.11,522.73l42.89-12.03c-9.1,22.26-28.79,43.92-55.19,42.23-.37-18.6-16.26-40,3.02-54.25l9.28,24.04Z"/>
      <path d="M671.84,468.34l-67.45,18.12c-19.27-19.42,66.65-60.98,67.45-18.12Z"/>
    </g>
  </g>
</svg>