<?xml version="1.0" encoding="UTF-8"?>
<svg fill="currentColor" id="Ebene_2" data-name="Ebene 2" xmlns="http://www.w3.org/2000/svg" viewBox="0 0 976.51 1558.66">
  <g id="Ebene_2-2" data-name="Ebene 2">
    <g>
      <path d="M0,15.54C.56,12.26,6.09,6.1,7.16,1.39l7.97-1.39,961.37,3.98-3.78,1554.68H9.21l-9.21-9.06V15.54ZM236.28,12.52H36.82c4.8,19.73,22.17,37.57,34.39,53.73,26.27,34.74,60.43,68.98,85.54,103.04,6.1,8.27,11.64,12.1,8.91,24.39-10.76,2.14-15.16-5.45-21.54-11.96-38.27-39.01-69.61-97.69-107.42-135.87-5.88-5.94-7.99-11.37-18.29-9.18v238.56c15.7,23.13,162.65,111.13,165.84,120.78,2.21,6.68,1.94,19.18-9.24,15.04L18.41,302.42v335.2l9.21,9.06h119.67c.46,3.92-8.14,12.08-9.21,12.08H27.62l-9.21,9.06v323.12l159.5-114.75c3.27,14.71-2.57,15.37-10.05,23.27-22.62,23.9-145.83,105.73-149.5,124.65l.18,344.17c25.02,32.13,37.43,62.44,52.06,99.76,13.45-28.47,45.28-50.28,39.9-84.52l-43.43-10.01c-3.24-14.49,9.61-34.59,7.03-46.29-1.39-6.3-49.1-25.87,5.15-55.32-24.62-33.86-11.94-63.76,31.21-51.4l6.95-35.47,47.38,4.67c31.29-66.12,47.13-3.13,59.72-.41,9.08,1.96,24.37-11.4,39.48-2.26,15.75,46.1,16.49,24.34,42.81,36.4,34.21,15.67-26.22,54.89,18.87,65.9,20.41,25.28-18.35,31.45-19.35,37.59-3.55,21.67,45.54,60.55-36.32,56.57,5.76,48.05-19.28,36.76-54.93,30.37-17.45,69.64-53.14-5.53-58.47-5.7-25.66,10.33-62.21,35.5-70.59,63.05-5.04,16.59,36.26.16,45.87.22,23.5.16,47.5,5.39,70.66,8.76,1.82,27.82-25.98,43.43-36.83,66.39h184.11l-6.11-96.65c28.84-.25,62.42,17.55,82.75,36.33,14.14,13.06,47.08,82.82,57.38,50.29,11.32-35.75-8.26-57.11-17.49-86.62l-48.45,11.55-6.75-41.72c-77.41,18.25-32.48-34.55-37.19-50.64-4.01-13.69-53.68-23.65,6.19-61.09-13.2-13.15-23.35-26.89-10.36-43.83l41.39-1.45c-3.11-47.66,17.89-47.05,55.18-30.22,2.15-38.4,48.96-41.5,49.25,0,9.42,8.51,36.34-29.14,51.77.35,4.09,7.82,2.42,22.43,9.21,27.14,10.06,6.98,41.68-2.44,43.33,23.75-40.28,45.7,32.46,41.71,2.58,75.16-4.64,5.19-20.76,12.02-20.9,15.48-.09,2.42,27.66,28.59,10.8,43.88l-41.18,7.96-12.67,32.96c-25.23,12.96-32.98-27.18-49.58,11.45-10.58,24.62-4.3,49.75-5.67,75.95,23.18,5.31,26.06-24.62,40.42-41.76,21.86-26.09,59.28-56.9,94.88-52.36,21.37,15.64-15.51,76.33,2.76,94.1h177.97l6.2-12.08c-8.45-8.52-38.8-36.56-31.13-48.49,9.97-15.52,82.36-22.47,101.6-11.92-3.95-55.11-39.03-50.27-79.66-66.44-10.31,51.75-40.11,40.7-58.36.14-9.07,11.38-21.71,14.85-36.09,11.39-13.6-4.09-6.78-26.74-15.75-32.98-7.23-5.03-23.91-.21-34.64-8.14-23.53-17.4,6.14-37.33,4.09-51.44-.78-5.37-57.79-22.31-.72-55.57-30.64-62.22,11.1-39.29,31.27-53.28,7.87-5.46,1.94-22.52,15.58-33.12,18.31-14.23,25.94,8.01,45.41,5.59-4.13-17.85,11.29-24.71,26.77-29.46l26.35,29.93,44.4-5.8,7.1,35.28c45.98-6.29,54.85,15.79,30.96,51.72,33.85,18.8,33.85,41.37,0,60.17,8.45,11.51,15.92,27.2,11.09,41.53-7.08,20.97-46.27-1.16-42.41,19.05l49.13,69.37c5.91-35.43,22.09-59.7,42.91-87.68l-.03-343.98c-4.68-24.54-126.48-101.34-151.77-128.22-4.58-4.87-15.07-11.44-7.6-19.87,8.63-9.75,137.64,113.95,159.53,114.72v-323.12l-9.21-9.06h-98.19l-6.2-12.09,113.6-6.03v-332.18l-150.36,102.56-9.28-14.92,159.63-114.82V30.64c-50.75,41.41-85.9,112.65-131.85,157.12-6.56,6.35-10.58,14.19-21.54,11.96L945.11,12.52h-199.45c-22.41,23.82-106.88,222.25-122.74,223.34-14.46,1-3.51-15.6-1.98-19.88,23.66-66.47,78.3-135.7,103.25-203.47h-460.28c12.63,65.62,75.41,132.38,95.31,193.09,2.25,6.86,9.29,29.1-6.25,24.37-11.96-3.64-88.92-198.35-116.67-217.46ZM208.69,1226.45c1.19-18.08-.46-35.96-15.37-48.17l-21.56,48.18-42.85-30.15,5.14,39.46-13.35,8.01-34.75-11.23,18.42,54.29c-15.79-1.62-27.48,2.18-36.74,15.13l36.68,15.17-24.5,48.21,49.03-5.98.09,48.29c23.74-4.19,22.07-35.3,49.01-30.19-1.21,19.59-2.74,36.3,15.37,48.19l15.37-48.17c17.21-4.73,25.85,31.36,39.89,30.01,18.41-1.77-1.84-43.09,3.07-48.13l49.03,5.98-24.4-39.24,36.68-15.22-.16-17.69-36.52-15.4c14.13-10.45,40.76-46.75,7.68-40.82-9.77,1.75-20.36,10.24-32.32,7.57-.95-17.2,15.87-35.31-3.1-48.16l-39.86,30.05ZM797.76,1178.19c-15.16-10.9-28.03,38.64-24.52,48.25-18.85,3.66-23.42-33.62-39.77-30.14-19.08,4.07,2.15,42.56-3.2,48.26l-49.03-12.02,24.47,45.19-36.75,15.25c-1.75,20.67,27.6,16.74,36.69,33.15-11,12.03-27.88,20.04-24.41,39.22l49.04-5.97c.93,17.19-15.85,35.32,3.1,48.16l39.86-30.05,6.23,42.26c34.11,8.37,17.48-35.07,33.79-42.23,11.54-5.06,17.18,34.37,39.77,24.07l.06-42.23,39.92,11.89c21.59-17.53-22.94-32.75-15.42-54.13l36.71-15.16c-9.23-12.94-20.98-16.78-36.74-15.13-3.13-18.9,18.76-25.35,24.44-45.31-14.22-20.33-29.84,7.67-48.92,3.04l-.06-48.27-39.77,30.11-15.49-48.22ZM509.43,1268.72c-6.97-5.16.72-52.86-24.54-48.25l-15.5,42.22-39.77-24.1-.06,48.26c-18.1.07-33.39-24.41-48.91-3.03l24.37,36.19c-2.63,11.25-41.04,6.58-36.76,24.16,2.76,11.34,40.95,6.51,36.76,24.16l-24.49,39.31,49.04-5.97-6.08,42.21c25.88,4.61,29.6-28.93,55.17-24.11,1.95,2.02-6.59,46.81,15.28,42.23l18.59-42.21c12.51-2.67,20.94,35.84,45.91,24.09l-6.07-42.22,49.03,5.98c7.12-18.9-41.48-36.44-20.33-48.34l32.51-15.04-36.68-24.24c-2.16-8.52,68.19-65.97-24.53-33.17-5.35-5.66,15.88-44.19-3.19-48.26-16.35-3.49-20.87,33.8-39.74,30.13ZM18.41,1407.67v120.79c9.93,4.53,25.62-20.24,27.3-24.39,9.42-23.25-1.61-67.09-13.56-88.7-3.94-7.13.21-10.08-13.74-7.7ZM963.52,1413.71c-14.14-2.5-9.79.86-13.72,7.73-15.86,27.8-20.3,84.65,13.72,100.98v-108.71ZM447.98,1546.54c6.17-5.17-33.27-48.49-39.99-54.19-8.58-7.27-39.98-32.34-49.08-18.29,3.03,29.9-3.72,79.5,39.98,72.48l-9.22-36.16c24.04,11.38,25.15,42.87,58.31,36.16ZM625.95,1468.09c-21.53-6.52-97.56,67.94-85.86,78.45,30.72,13.16,40.96-34.85,45.98-36.33,39.85-11.77-27.57,54.05,27.85,33.56,15.72-22.3,12.07-50.21,12.02-75.68ZM184.1,1492.29c-42.97-12.94-119.58-7.13-134.97,42.17l85.85-30.14-4.13,18.17c-64.67,9.02-55.3,39.47,4.5,21.39,12.48-3.77,53.24-45.52,48.74-51.59ZM938.97,1522.36c-24.69-43.85-78.97-41.75-122.72-30.07-7.3,10.05,33.7,49.37,47.51,52.81,8.04,2,77.58,5.55,56.84-10.57-18.39.47-39.11-7.53-55.2-15.48-8.64-4.26-15.47,1.47-12.31-14.72l85.89,18.02Z"/>
      <path d="M558.52,417.18c13.45,11.43,139.13-85.99,162.2-97.05,7.95-3.81,10.3-10.82,18.88.37l-46.16,187.24c22.83,6.27,196.41,6.92,196.3,27.19l-147.17,108.93c-4.24,17.06,133.24,107.95,147.17,132.66-5.81,8.73-11.76,8.39-21.05,9.36-54.09,5.67-114.52,4.76-169.11,5.71-9.38,9.4,35.77,156.13,38.91,182.6.66,5.54,5.63,14.53-5.25,16.73-21.11,4.28-156.61-99.56-168.56-90.6l-48.07,118.87-28.66,44.15c-14.25-6.41-51.5-129.59-65.79-152.69-3.96-6.4-4.17-10.69-13.89-10.58-14.92.16-157.08,104.39-162.75,96.88l30.65-199.29c-35.59-3.22-71.91-9.06-107.49-12.03-15.27-1.27-73.31,5.84-76.62-9.21l141.01-126.74c-39.24-38.01-92.93-68.74-131.74-105.79-6.01-5.73-11.6-7.9-9.28-17.96l196.39-18.21-42.96-193.21c11.75-11.93,160.13,108.71,177.69,96.43l64.78-162.87c10.19-2.42,12.15,8.35,15.59,14.74,23.37,43.5,40.41,106.57,54.95,154.35ZM484.83,450.39v-141.93c-9.23,1.49-11.86,11.07-15.32,18.14-9,18.37-45.28,113.67-46.18,129.81-1.12,20.06,38.24-2.23,51.16,1.92l10.35-7.93ZM294.58,362.87c24.47,33.92,51.35,75.7,78.36,107.03,4.46,5.18,6.81,15.93,16.68,13.68,10.64-9.77,26.35-42.37,18.78-54.25-3.52-5.52-108.93-70.85-113.82-66.46ZM687.29,362.82l-113.92,72.46,18.94,48.31c8.67,2.05,69.1-77.56,79.08-91.18,4.11-5.61,20.49-24.6,15.9-29.59ZM464.91,473.11c-239.26,30.85-211.25,404.5,59.12,372.2,232.16-27.73,194.18-404.86-59.12-372.2ZM153.47,537.89l143.61,41.44,40.33-56.47-45.65-2.75-138.3,17.78ZM822.33,531.98l-177.91-12.11,34.97,54.63c11.03,2.5,88.75-17.56,104.96-22.62,10.18-3.18,33.59-9.83,37.99-19.91ZM834.59,743.39l-108.24-83.89c-21.51,1.46-46.12,35.16-26.79,50.66,4.7,3.77,102.69,35.33,115.06,37.79,6.28,1.25,21.5,6.16,19.97-4.57ZM281.35,683.75c-47.31-47.56-90.38,29.79-127.92,59.5l122.62-39.31,5.3-20.18ZM312.9,755.41c-14.68-1.83-9.77-.2-12.86,8.34-17.7,48.99-18.84,120.58-29.95,172.83,16.57-21.27,78.25-92.79,83.1-114.24,4.5-19.91-42.74-42.14-40.3-66.93ZM675.04,767.5c-6.17-5.56-50.42,42.43-48.29,55.96,1.8,11.42,54.03,81.11,65.42,93.28,6.07,6.49,6.47,16.85,19.71,13.76l-36.83-163ZM497.1,864.1v144.95c9.35-3.23,15.19-22.99,19.48-32.18,6.41-13.75,37.58-83.02,36.24-91.08-17.99-8.72-34.25-24.74-55.71-21.69Z"/>
      <path d="M595.26,60.87c2.04,15.56-17.22,18.48-18.71,33.49-1.75,17.59,30.81,32.87,12.6,42.04-9.52,4.79-19.45-19.22-28.44-20.81-10.63-1.88-21.63,24.32-39.06,17.67l24.13-38.37-24.1-34.02c17.37-6.96,28.8,20.05,39.08,17.73,8.19-1.85,17.28-24.36,34.51-17.73Z"/>
      <path d="M454.11,60.86l-17.95,38.39,23.96,31.07c-20.92,23.36-16.09-.75-27.03-9.45-19.54-15.53-29.16,18.04-37.26,18.35-23.82.89,5.43-28.52,6.2-30.17,12-26-13.17-26.56-15.37-48.19,17.71-6.76,28.17,19.6,39.05,17.71,8.5-1.48,14.46-21.63,28.39-17.71Z"/>
      <path d="M625.88,1021.16c9.17,37.76,32.07,74.88,44.38,110.47,3.96,11.44,8.64,12.96-4.39,22.26-7.73-.59-51.64-109.84-52.37-123.6-.64-11.98,1.47-9.74,12.38-9.12Z"/>
      <path d="M374.33,1021.16c4.13,4.51-34.06,101.94-40.09,114.77-4.26,9.07.88,14.91-15.08,12-1.68-10.32,1.8-19.24,4.31-28.92,4.65-18.02,22.97-68.15,31.15-84.09,4.38-8.54,8.39-15.93,19.71-13.75Z"/>
      <path d="M484.89,139.35c.46-19.03-.88-38.35-.06-57.42.4-9.29-5.76-23.91,9.11-21.03,15.9,18.84,16.98,67.97-9.05,78.45Z"/>
      <path d="M525.85,1306.93c45.16,40.63-26.2,111.98-69.99,68.85-42.65-42.01,20.94-112.97,69.99-68.85Z"/>
      <path d="M182.52,1251.54c59.91-11.4,79.52,83.33,21.6,94.7-71.73,14.09-75.76-84.4-21.6-94.7Z"/>
      <path d="M826.53,1333.3c-42.42,45.53-118.1-20.47-69.51-68.45,44.56-43.99,110.01,24.97,69.51,68.45Z"/>
      <path d="M558.47,743.37c-49.87,56.09-76.05,54.74-128.76,2.96,40.24-27.86,85.67-11.61,128.76-2.96Z"/>
      <path d="M599.68,612.19c9.72,12.04,13.68,19.68,7.89,34.5l-85.87-.03c-5.33-32.69,56.03-48.44,77.98-34.47Z"/>
      <path d="M375.98,623.69c31.34-32.04,63.21-14.27,90.31,13.93.45,6.75-35.07,8.13-40.64,8.32-19.14.66-61.51,3.29-49.67-22.25Z"/>
      <path d="M466.41,580.18c-40.56-8.26-66.23,5.77-104.33,12.08,18.93-30.35,82.35-45.23,104.33-12.08Z"/>
      <path d="M619.84,592.26c-19.15,2.29-36.25-15.29-53.57-16.76-14.55-1.24-49.02,17.1-44.6-7.25,34.62-11.4,78.84-10.66,98.17,24.01Z"/>
    </g>
  </g>
</svg>