<svg width="34" height="45" viewBox="0 0 34 45" fill="none" xmlns="http://www.w3.org/2000/svg">
<path d="M33.3556 15.2232C33.369 14.7012 33.1444 14.1597 32.881 13.6871C32.4612 12.941 32.0073 12.2351 31.5594 11.5112C30.4357 9.75908 29.3488 7.96355 28.1976 6.22884C28.0171 5.9922 27.8126 5.78029 27.5639 5.59646C27.3801 5.46076 27.1782 5.34177 26.971 5.24016C26.245 4.89389 25.4355 4.60778 24.6975 4.99015C24.1734 5.25955 23.7315 5.70208 23.2776 6.07977C22.0978 7.09185 20.8691 8.02906 19.6478 8.98899C18.748 9.68288 18.4579 10.3286 18.3235 11.4309C18.1885 12.3347 17.9846 13.2746 17.7607 14.1637C17.3302 15.8897 17.0868 14.3682 16.9311 13.6182C16.659 12.0553 16.1704 10.5399 15.8602 8.98833C15.8007 8.66278 15.7432 8.32987 15.6369 8.01903C15.4825 7.54842 15.2031 7.16003 14.8327 6.82646C13.0051 5.32439 11.2042 3.79691 9.36523 2.30219C9.01295 2.01742 8.65798 1.73465 8.30569 1.45055C7.6947 1.00802 6.68196 -0.073583 5.96802 0.00396065C5.27949 0.0922 5.05889 0.996653 4.87506 1.58558C4.15577 4.05896 3.58289 6.65533 2.86093 9.14542C2.72924 9.60466 2.58953 10.0846 2.46385 10.5566C2.29473 11.1983 2.12025 11.8568 2.13897 12.5099C2.15301 13.278 2.50998 13.9879 2.8616 14.6577C3.64706 16.1685 4.36166 17.714 5.13309 19.2294C5.26077 19.4928 5.44326 19.821 5.53819 20.071C5.59367 20.2449 5.66654 20.4267 5.43056 20.4173C5.30355 20.4113 5.08429 20.3358 4.93188 20.2816C3.95255 19.9253 2.13028 19.2575 1.10149 18.8818C0.846131 18.7943 0.552 18.6746 0.304663 18.7027C-0.222768 18.7842 0.0733688 19.7428 0.174309 20.1239C1.15631 22.9382 2.19379 25.7538 3.33755 28.5059C3.65174 29.1851 4.11633 29.7714 4.64711 30.2961C5.30155 30.9566 5.97471 31.599 6.64586 32.2421C8.43003 33.9741 10.3225 35.6099 12.0218 37.4221C12.2537 37.7236 12.4128 38.0257 12.2504 38.362C11.8694 39.0198 10.8071 39.0432 10.5197 39.8032C10.3479 40.3012 10.6995 40.7906 10.991 41.1783C11.3707 41.6676 11.8667 42.2231 12.3012 42.6917C13.1836 43.6891 13.83 43.9899 15.1777 44.0487C18.1985 44.1784 21.2013 44.7607 24.2262 44.6678C25.271 44.6029 26.2504 44.3549 27.2685 44.155C29.0807 43.7747 29.8381 44.038 30.6998 42.0928C30.9411 41.57 31.2813 41.058 31.4023 40.4918C31.5748 39.481 30.5928 39.3507 29.9136 39.0579C29.2157 38.753 29.5861 38.0999 29.8575 37.6113C30.6162 36.2008 31.399 34.8077 32.2025 33.4139C32.6871 32.5282 33.2126 31.621 33.1918 30.5836C33.1925 30.137 33.125 29.6845 33.0628 29.2399C32.9499 28.4631 32.8456 27.6977 32.7246 26.9176C32.6424 26.3902 32.5541 25.8648 32.4258 25.3453C32.3262 24.9275 32.1256 24.3032 31.661 24.2497C30.9952 24.2089 30.0914 25.3286 30.7024 23.4355C31.3442 21.5524 32.125 19.7221 32.7146 17.8216C32.9612 16.9887 33.3108 16.105 33.3543 15.2333V15.2212L33.3556 15.2232ZM19.5261 11.207C19.6103 10.2404 20.3604 9.64344 21.0964 9.05918C21.6773 8.59526 22.2569 8.14003 22.8104 7.66206C23.2957 7.29373 24.1874 6.28967 24.8205 6.54704C25.0016 6.62258 25.1487 6.80106 25.2664 7.04372C26.0358 9.17617 26.5893 11.4009 27.2952 13.5534C27.5345 14.3174 27.8106 15.0735 28.0646 15.8356C28.2291 16.3269 28.3701 16.8603 28.2685 17.3637C28.193 17.7681 27.9683 18.1879 27.6515 18.4199C26.9075 18.9794 26.1026 18.3617 25.3238 18.0476C24.2937 17.6137 23.2582 17.1886 22.2388 16.726C21.7622 16.5027 21.2207 16.3175 20.8437 15.9813C20.0495 15.2887 19.9412 14.2573 19.7374 13.2626C19.6311 12.5901 19.4646 11.9016 19.5248 11.2197L19.5261 11.2063V11.207ZM26.3961 19.801C26.5719 20.2469 26.3707 20.7756 26.2524 21.2395C25.0137 25.5385 23.904 29.9117 22.1212 34.0249C21.9861 34.3197 21.9413 34.4801 21.8197 34.6546C21.8137 34.6606 21.8083 34.6646 21.803 34.666C21.7622 34.6793 21.7642 34.5008 21.7441 34.2762C21.5509 31.5502 20.6024 19.3618 20.48 17.3015C20.4927 17.2213 20.5462 17.1832 20.6645 17.1839C21.1238 17.2193 21.5957 17.4045 22.1786 17.6017C23.043 17.9239 23.9347 18.3303 24.8011 18.7167C25.3914 19.0128 26.1427 19.206 26.3927 19.7916L26.3968 19.8016L26.3961 19.801ZM17.8175 17.2019C17.891 16.8817 18.0227 16.5956 18.125 16.2754C18.2513 15.9031 18.3543 15.4285 18.4512 14.9799C18.7701 13.3361 19.006 13.7526 19.1625 15.0615C19.3831 17.1324 19.4406 19.2167 19.7046 21.2817C19.7995 22.0999 19.8557 22.9214 19.9225 23.7423C20.0014 24.8333 20.1966 25.9624 20.1712 27.0567C20.113 27.9878 19.8309 27.3601 19.7166 26.9083C19.4185 25.7484 19.2547 24.5545 19.0107 23.3807C18.8423 22.5491 18.6197 21.8325 18.4378 21.0524C18.3175 20.551 18.2172 20.0416 18.1016 19.5349C17.9425 18.7274 17.6684 17.9794 17.8162 17.212L17.8182 17.2019H17.8175ZM14.5326 9.77646C14.6763 9.77713 14.8006 9.93757 14.8976 10.205C15.0099 10.5151 15.0767 10.8614 15.1509 11.2023C15.3675 12.2619 15.5654 13.3354 15.8094 14.3923C17.3201 21.1279 19.113 27.81 20.4954 34.5717C20.5649 35.0396 20.8631 36.2991 20.6164 36.5838C20.4112 36.6774 20.1451 35.9394 20.0515 35.6974C17.6377 28.8649 14.6128 22.269 11.8199 15.5922C11.5164 14.8415 11.6588 14.1189 12.0585 13.4417C12.3981 12.8301 12.7645 12.2478 13.1335 11.6683C13.3541 11.324 13.5653 10.9857 13.7759 10.6261C13.963 10.3447 14.1923 9.81858 14.5259 9.77646H14.5319H14.5326ZM3.68383 12.2766C3.54746 11.9898 3.60027 11.5987 3.67915 11.2745C4.29014 8.81385 4.96597 6.30572 5.66453 3.85841C5.81628 3.33566 5.96067 2.79754 6.13648 2.28348C6.24277 2.02143 6.35708 1.53879 6.64051 1.66847C6.71003 1.70457 6.76752 1.7507 6.83103 1.80217C8.60317 3.26347 12.7798 6.70213 13.9443 7.6634C14.332 7.93948 14.2652 8.24565 14.074 8.66144C13.2417 10.3179 12.225 11.8862 11.2102 13.4337C10.5304 14.4679 9.7583 14.1891 8.73218 13.9578C7.43734 13.6643 6.11241 13.3481 4.83896 12.9845C4.41247 12.8582 3.88303 12.7077 3.68784 12.2859L3.68316 12.2766H3.68383ZM12.3868 36.0203C10.2316 33.6913 7.67131 31.6792 5.44928 29.3957C4.66716 28.6075 4.22329 27.5868 3.82755 26.5653C3.12097 24.7344 2.35957 22.8967 1.80406 21.0243C1.73521 20.7248 1.75259 20.5102 1.89899 20.4347C2.22922 20.3157 2.64568 20.5483 2.98326 20.6506C3.36028 20.785 3.74198 20.908 4.12636 21.021C5.22601 21.3465 6.09503 21.4922 6.76953 22.509C8.79502 25.6361 10.62 28.8823 12.5071 32.0903C13.197 33.2769 13.9376 34.4407 14.6335 35.6272C14.8521 36.0016 15.0674 36.3786 15.2686 36.7764C15.4277 37.122 15.7104 37.5732 15.3388 37.7844C15.0513 37.9108 14.6903 37.7824 14.4069 37.6688C13.6569 37.3365 12.9703 36.5798 12.3948 36.029L12.3854 36.0196L12.3868 36.0203ZM30.915 18.6198C31.0006 18.8791 30.9204 19.2194 30.8355 19.5008C30.2893 21.2148 29.5974 22.8847 28.9731 24.5746C28.6676 25.4316 28.3507 26.2973 28.2271 27.201C28.1956 27.4598 28.1355 27.8695 28.2832 28.038C28.5339 28.3261 29.4036 27.3775 29.6576 27.193C29.9872 26.9109 30.3655 26.5239 30.6663 26.3447C30.9524 26.1616 31.2292 26.1903 31.3582 26.5987C31.5033 27.042 31.5661 27.7164 31.6751 28.2258C31.8409 29.1463 32.1189 30.0982 31.9044 31.0181C31.8268 31.3663 31.6898 31.7033 31.53 32.0255C30.6864 33.6766 29.7625 35.2876 28.9036 36.9321C28.5479 37.7022 27.9951 38.7617 28.6442 39.5037C28.8461 39.721 29.1582 39.8701 29.4016 40.0185C30.0955 40.4042 29.919 40.8928 29.578 41.5326C29.189 42.3047 28.57 42.6603 27.7284 42.8094C26.4088 43.0647 25.0798 43.3114 23.7449 43.3141C23.1586 43.3141 22.5744 43.2626 21.9908 43.2091C20.8096 43.0948 19.6184 43.0353 18.4338 42.9845C17.873 42.9591 17.3282 42.9437 16.7653 42.933C15.9899 42.9083 15.064 42.9351 14.3675 42.6035C13.6475 42.2479 13.0178 41.5179 12.4603 40.9055C12.0238 40.4069 11.9817 39.9764 12.598 39.6401C12.8854 39.475 13.2377 39.3233 13.5579 39.2009C14.0947 38.9817 14.6763 38.9322 15.2472 38.8941C15.8909 38.85 16.6557 38.6194 16.7834 37.9195C16.8823 37.2817 16.3475 36.6654 16.0266 36.1052C15.5854 35.3839 15.1516 34.6158 14.7351 33.8899C11.0645 27.7037 7.40659 21.511 4.30752 15.0173C4.16313 14.7172 3.89373 14.1911 3.91646 13.9779C3.92782 13.8963 3.98264 13.8535 4.08893 13.8468C4.22931 13.8468 4.4118 13.8769 4.57424 13.919C5.79087 14.2098 8.34848 14.8228 9.53971 15.1083C9.75563 15.1584 9.99695 15.2272 10.1728 15.3282C10.4435 15.4679 10.6587 15.8035 10.8178 16.1384C11.0465 16.607 11.2537 17.1264 11.4596 17.613C14.2906 24.4015 17.0427 31.2306 19.8483 38.0311C20.0048 38.4135 20.3196 39.0732 20.7789 38.8667C21.1425 38.6822 21.3838 38.1655 21.579 37.7938C22.3284 36.291 23.1426 34.8164 23.8632 33.3016C24.3084 32.2795 24.6921 31.1665 25.0097 30.1049C25.1053 29.7446 25.1774 29.3689 25.2837 29.0079C25.3987 28.6042 25.5485 28.1917 25.6708 27.7706C26.3112 25.3266 26.9302 22.8492 27.7477 20.4521C28.1101 19.5516 28.6529 18.438 29.6489 18.1759C30.1369 18.0536 30.7519 18.1518 30.9123 18.6124L30.915 18.6211V18.6198ZM32.0989 15.3482C32.1316 15.9953 31.9839 16.8276 31.4458 17.1398C31.0059 17.3523 30.29 17.2093 29.8675 16.9031C29.3374 16.502 29.209 15.8061 28.9891 15.1845C28.1355 12.6155 27.1254 10.0592 26.3573 7.46954C26.2524 7.12995 26.0692 6.18806 26.6722 6.59784C26.8948 6.76363 27.1361 7.07982 27.3086 7.33518C28.7424 9.49971 30.1376 11.691 31.4973 13.9023C31.7693 14.3515 32.0508 14.8028 32.0975 15.3349L32.0989 15.3482Z" fill="white"/>
</svg>
