<svg width="237" height="75" viewBox="0 0 237 75" fill="none" xmlns="http://www.w3.org/2000/svg">
<g clip-path="url(#clip0_1_278)">
<path d="M34.4681 0.119918C63.5269 -2.05762 84.4678 26.1071 72.3277 52.9096C59.4706 81.2931 19.5593 82.598 4.55103 55.2668C-8.39247 31.6942 7.74372 2.12033 34.4681 0.119918ZM35.2506 2.46155C8.32469 4.51667 -6.73593 34.5646 8.50526 57.0589C24.3431 80.4361 60.172 76.628 70.7602 50.5679C80.6628 26.1957 61.3574 0.471553 35.2506 2.46155Z" fill="black"/>
<path d="M115.123 17.4932C115.194 17.9464 115.029 18.2512 114.822 18.6263C113.862 20.3792 110.792 23.7341 109.358 25.4298C103.962 31.8217 97.9111 37.6927 92.4809 44.0561C92.2559 44.3191 90.8636 45.9549 91.0442 46.1424C95.9091 47.9787 100.622 50.3829 105.563 52.1411C115.207 55.5715 126.219 57.9808 136.195 54.54L136.773 55.397C136.653 57.1056 128.367 58.8039 126.776 58.9185C113.529 59.8692 100.578 54.2665 88.579 49.5233C88.4377 51.5472 85.6219 54.1754 84.125 51.8598C83.0808 50.2422 84.0412 49.0805 85.033 47.8459C89.5709 42.2015 94.7315 36.9556 99.4133 31.4232C102.745 27.4823 106.013 23.4502 109.101 19.3165H92.2218C90.424 19.3165 89.2306 23.0334 89.474 24.5285L87.9038 24.1352V17.4932H115.12H115.123Z" fill="black"/>
<path d="M166.939 11.2419V48.88C166.939 49.216 168.276 49.9557 168.71 50.0052C169.331 50.0755 171.864 49.216 171.38 50.6954C171.259 51.0601 164.332 52.748 163.961 52.6386C163.22 52.4224 163.657 49.8046 162.882 49.2759C152.655 58.0017 141.536 48.7107 145.15 36.5701C147.458 28.8211 155.071 26.0236 162.49 28.433V16.3211C162.49 16.0841 161.731 15.0135 161.375 14.826C160.527 14.3806 157.269 14.615 158.159 13.3101C158.413 12.9376 165.842 11.2654 166.941 11.2419H166.939ZM155.618 29.7979C146.257 31.2617 146.396 51.2607 157.387 50.0521C159.166 49.8567 161.386 48.4424 162.435 47.002L162.482 32.215C161.249 29.9984 157.97 29.428 155.618 29.7953V29.7979Z" fill="black"/>
<path d="M198.473 28.1725C198.826 28.2715 199.004 28.855 198.745 29.2248C198.29 29.8708 195.479 28.6596 195.738 31.3972C197.719 35.8668 199.13 41.8551 201.433 46.0643C201.564 46.3065 201.684 46.6373 202.003 46.6634L207.74 31.6654L207.64 29.9828L205.144 29.4723V28.1699H214.437C214.879 28.1699 214.834 29.2196 214.515 29.4254C214.319 29.553 213.489 29.4905 213.037 29.6416C211.61 30.1208 211.037 31.7748 210.414 33.0251C205.74 42.4073 202.187 52.7375 197.602 62.2083C195.176 67.2145 191.789 72.1947 185.252 70.2412C180.311 68.7643 184.012 63.5263 187.223 66.9775C188.254 68.0845 188.188 69.6135 190.154 68.8607C194.223 67.3057 197.714 55.1782 199.36 51.2164L190.8 31.1158C189.416 28.9435 188.311 29.9906 187.343 29.3472C186.801 28.9878 187.22 28.1699 187.479 28.1699H198.471L198.473 28.1725Z" fill="black"/>
<path d="M128.147 27.985C144.485 26.2216 145.281 52.5109 129.644 52.6776C115.228 52.8313 113.733 29.54 128.147 27.985ZM127.616 30.3188C120.056 31.6159 120.158 49.5624 129.65 50.3099C131.416 50.448 132.649 50.0391 133.936 48.8539C139.521 43.7044 136.854 28.7351 127.616 30.3214V30.3188Z" fill="black"/>
<path d="M230.437 29.3056C234.456 33.322 231.735 43.4179 232.742 48.7601C232.97 49.9609 233.836 50.9012 234.969 49.9088C235.762 49.2134 235.537 47.4161 237 49.3931C236.186 51.6227 234.59 53.0631 232.085 52.537C229.971 52.0916 229.709 50.4793 228.984 48.8461C228.916 48.6924 229.003 48.2679 228.571 48.4867C228.403 48.57 227.171 50.2214 226.582 50.6772C223.839 52.8001 218.496 53.9435 216.279 50.5574C212.238 44.379 223.983 40.2141 228.422 40.1386C228.369 38.9222 228.723 37.8542 228.71 36.6248C228.702 35.7106 228.482 32.8923 228.257 32.1187C227.048 27.9485 221.084 29.6754 219.888 33.1345L216.405 31.7983C216.25 30.7877 217.399 30.2537 218.147 29.7796C221.293 27.787 227.5 26.3701 230.431 29.3004L230.437 29.3056ZM228.435 42.238C226.252 42.949 220.597 43.6106 219.924 46.1372C219.377 48.1871 220.191 50.1432 222.539 50.0625C225.48 49.9635 229.335 45.2386 228.435 42.238Z" fill="black"/>
<path d="M182.379 48.88C182.939 50.8595 186.807 49.4816 186.304 51.6123C185.938 51.9952 176.805 52.0369 175.692 51.8884C175.276 51.8337 174.4 51.5368 174.528 50.9663C174.672 50.336 177.666 50.3516 177.815 49.2941C178.079 45.6866 177.857 42.0634 177.917 38.4507C177.943 36.8384 178.705 33.4054 177.878 31.9988C177.176 30.8033 174.405 31.4492 174.787 30.1287C174.894 29.7588 180.762 28.222 181.573 27.7662C181.84 27.6412 182.374 28.2429 182.374 28.3054V48.8826L182.379 48.88Z" fill="black"/>
<path d="M54.145 29.2144L54.1555 30.9049C50.6644 32.1447 47.1027 33.645 43.965 35.6168C38.5557 39.0159 33.5469 45.5329 30.998 51.3623C30.5007 52.4979 30.1972 54.1467 29.7497 55.0688C29.5769 55.4256 29.467 55.6027 29.03 55.522C29.1111 54.6051 28.2214 53.9461 28.2528 53.0736C28.2894 52.0577 30.2129 48.3564 30.8148 47.2729C35.8524 38.2163 43.8446 31.4779 54.1476 29.2144H54.145Z" fill="black"/>
<path d="M40.9163 15.8184C41.0052 15.9226 41.2983 15.9252 41.3297 16.1075C41.4946 17.0192 38.9614 20.4053 38.2836 21.3716C34.8501 26.2711 30.82 30.772 26.536 34.9396C26.1409 34.4134 25.4212 33.83 25.7405 33.1267C25.9577 32.6474 29.7052 29.0659 30.4667 28.1751C33.9054 24.1404 37.208 19.7723 40.0082 15.2714C40.4688 14.8911 40.665 15.5215 40.9163 15.8184Z" fill="black"/>
<path d="M24.2201 61.8645C23.8485 61.4972 23.1968 61.169 22.7572 60.846L20.1298 59.8224C20.5746 59.278 21.2917 59.4811 21.8857 59.2233C23.7176 58.4288 25.7117 56.5717 25.8871 54.4775C26.7533 54.441 26.7664 55.6001 27.1458 56.2174C28.0094 57.6214 29.0719 58.6502 30.6683 59.2233C31.401 59.4864 32.1573 59.2363 32.6859 59.8145C31.0739 60.5439 30.0297 60.5152 28.6297 61.7629C27.1825 63.0522 26.9417 64.1905 26.2796 65.9304C25.6699 64.4483 25.4343 63.0496 24.2227 61.8618L24.2201 61.8645Z" fill="black"/>
<path d="M61.2108 22.4422C61.1401 24.3879 62.9458 26.7061 64.6887 27.4458C64.9321 27.55 67.4235 27.8626 66.7064 28.4304C64.6259 28.2637 62.3806 30.0271 61.6714 31.8842C61.373 32.6709 61.7551 33.9263 60.69 33.9003C60.5958 32.0353 59.481 30.2302 57.8506 29.3004C57.4816 29.0894 55.4692 28.6909 55.9769 28.1725C57.6622 27.9954 59.7322 26.0341 60.2504 24.4791C60.5068 23.7107 60.1378 22.4057 61.2082 22.4396L61.2108 22.4422Z" fill="black"/>
<path d="M49.4345 12.5417C47.8853 12.3098 45.6321 14.0133 45.0485 15.3391C44.7554 16.0033 44.8784 17.4776 44.0724 17.4932C43.9467 15.6908 42.4655 13.6122 40.7305 13.0001C40.003 12.7422 39.2362 12.9923 38.7102 12.4114C40.4793 11.7655 42.1934 11.0648 43.2716 9.40299C43.7793 8.62158 43.7008 7.54844 44.4597 7.07178C44.3785 8.89247 46.1031 10.8121 47.6759 11.5571C48.3302 11.867 49.4921 11.531 49.4345 12.5391V12.5417Z" fill="black"/>
<path d="M26.1435 41.4565C26.7323 41.8889 27.1379 50.3725 26.9312 51.4847C26.7558 52.4328 25.8556 52.102 25.0967 52.1359C25.0417 50.3646 25.1752 48.57 25.0967 46.7962C25.0077 44.8635 23.7019 42.4099 26.1435 41.4565Z" fill="black"/>
<path d="M24.0264 40.6491L23.3067 40.6256C22.7676 39.2373 21.4356 38.0314 19.8628 38.0678C19.7451 37.388 19.9596 37.6641 20.237 37.5234C21.8203 36.7238 22.8409 36.4946 23.66 34.6869C24.6021 36.38 25.7013 37.1562 27.4494 37.9376C26.0703 38.6617 24.3902 38.7893 24.0264 40.6465V40.6491Z" fill="black"/>
<path d="M50.6827 49.2056C49.6203 50.2709 47.1812 48.6924 48.372 47.0358C49.6726 45.2282 52.1142 47.7704 50.6827 49.2056Z" fill="black"/>
<path d="M22.6708 17.5401C25.2171 16.803 25.1386 21.3169 22.608 20.3845C21.1608 19.8505 21.4984 17.8787 22.6708 17.5401Z" fill="black"/>
<path d="M177.606 22.8051C177.369 22.5165 176.954 22.2586 176.674 22.0048L175 21.2005C175.283 20.7727 175.74 20.9324 176.119 20.7297C177.286 20.1055 178.556 18.6462 178.668 17.0007C179.22 16.972 179.228 17.8828 179.47 18.3679C180.02 19.471 180.697 20.2795 181.714 20.7297C182.181 20.9365 182.663 20.74 183 21.1943C181.973 21.7674 181.308 21.7449 180.416 22.7253C179.494 23.7384 179.34 24.6328 178.918 26C178.53 24.8354 178.38 23.7364 177.608 22.8031L177.606 22.8051Z" fill="black"/>
</g>
<defs>
<clipPath id="clip0_1_278">
<rect width="237" height="75" fill="white"/>
</clipPath>
</defs>
</svg>
