<svg width="76" height="75" viewBox="0 0 76 75" fill="none" xmlns="http://www.w3.org/2000/svg">
<path d="M34.4672 0.118712C63.5259 -2.05882 84.4669 26.1059 72.3268 52.9084C59.4696 81.2919 19.5583 82.5968 4.55005 55.2656C-8.39345 31.693 7.74275 2.11913 34.4672 0.118712ZM35.2496 2.46035C8.32371 4.51546 -6.73691 34.5634 8.50428 57.0577C24.3421 80.4349 60.171 76.6268 70.7592 50.5667C80.6618 26.1945 61.3565 0.470348 35.2496 2.46035Z" fill="black"/>
<path d="M54.144 29.2132L54.1545 30.9037C50.6635 32.1435 47.1018 33.6438 43.964 35.6156C38.5548 39.0147 33.5459 45.5317 30.997 51.361C30.4998 52.4967 30.1962 54.1455 29.7487 55.0675C29.576 55.4244 29.4661 55.6015 29.029 55.5208C29.1102 54.6039 28.2204 53.9449 28.2518 53.0723C28.2884 52.0565 30.2119 48.3552 30.8138 47.2716C35.8514 38.2151 43.8437 31.4767 54.1466 29.2132H54.144Z" fill="black"/>
<path d="M40.9153 15.8172C41.0043 15.9214 41.2974 15.924 41.3288 16.1063C41.4936 17.018 38.9604 20.4041 38.2826 21.3704C34.8492 26.2699 30.819 30.7708 26.5351 34.9384C26.1399 34.4122 25.4202 33.8288 25.7395 33.1255C25.9567 32.6462 29.7042 29.0647 30.4657 28.1739C33.9044 24.1392 37.207 19.7711 40.0072 15.2702C40.4678 14.8899 40.6641 15.5203 40.9153 15.8172Z" fill="black"/>
<path d="M24.2191 61.8632C23.8475 61.496 23.1959 61.1678 22.7562 60.8448L20.1288 59.8211C20.5737 59.2768 21.2907 59.4799 21.8848 59.2221C23.7166 58.4276 25.7108 56.5705 25.8861 54.4763C26.7523 54.4398 26.7654 55.5989 27.1449 56.2162C28.0085 57.6202 29.0709 58.649 30.6673 59.2221C31.4 59.4851 32.1563 59.2351 32.685 59.8133C31.0729 60.5426 30.0288 60.514 28.6287 61.7616C27.1815 63.051 26.9407 64.1892 26.2786 65.9292C25.6689 64.4471 25.4334 63.0484 24.2217 61.8606L24.2191 61.8632Z" fill="black"/>
<path d="M61.2098 22.441C61.1392 24.3867 62.9449 26.7049 64.6878 27.4446C64.9311 27.5488 67.4225 27.8614 66.7054 28.4292C64.625 28.2625 62.3796 30.0259 61.6704 31.883C61.3721 32.6697 61.7541 33.9251 60.689 33.8991C60.5948 32.0341 59.48 30.229 57.8496 29.2992C57.4806 29.0882 55.4682 28.6897 55.9759 28.1713C57.6612 27.9942 59.7312 26.0329 60.2494 24.4778C60.5059 23.7095 60.1369 22.4045 61.2072 22.4384L61.2098 22.441Z" fill="black"/>
<path d="M49.4335 12.5405C47.8843 12.3086 45.6311 14.0121 45.0475 15.3379C44.7544 16.0021 44.8774 17.4764 44.0714 17.492C43.9458 15.6896 42.4646 13.611 40.7295 12.9989C40.002 12.741 39.2352 12.9911 38.7092 12.4102C40.4783 11.7643 42.1924 11.0636 43.2706 9.40179C43.7783 8.62037 43.6998 7.54723 44.4587 7.07057C44.3776 8.89126 46.1021 10.8109 47.6749 11.5559C48.3292 11.8658 49.4911 11.5298 49.4335 12.5379V12.5405Z" fill="black"/>
<path d="M26.1425 41.4554C26.7313 41.8877 27.1369 50.3713 26.9302 51.4835C26.7549 52.4316 25.8546 52.1008 25.0957 52.1347C25.0408 50.3635 25.1742 48.5688 25.0957 46.795C25.0067 44.8623 23.7009 42.4087 26.1425 41.4554Z" fill="black"/>
<path d="M24.0254 40.6479L23.3058 40.6244C22.7667 39.2361 21.4346 38.0301 19.8618 38.0666C19.7441 37.3868 19.9587 37.6629 20.2361 37.5222C21.8193 36.7226 22.8399 36.4934 23.6591 34.6857C24.6012 36.3788 25.7003 37.155 27.4484 37.9364C26.0693 38.6605 24.3892 38.7881 24.0254 40.6453V40.6479Z" fill="black"/>
<path d="M50.6818 49.2044C49.6193 50.2697 47.1803 48.6912 48.371 47.0346C49.6716 45.227 52.1132 47.7692 50.6818 49.2044Z" fill="black"/>
<path d="M22.6698 17.5389C25.2161 16.8018 25.1376 21.3157 22.607 20.3832C21.1598 19.8493 21.4974 17.8775 22.6698 17.5389Z" fill="black"/>
</svg>
