{
  "asset": {
    "generator": "glTF-Transform v4.2.1",
    "version": "2.0",
    "extras": {
      "author": "Terrie Simmons-Ehrhardt (https://sketchfab.com/terrielsimmons)",
      "license": "CC-BY-4.0 (http://creativecommons.org/licenses/by/4.0/)",
      "source": "https://sketchfab.com/3d-models/amazonite-ff71e7d7a18f4d738bcba6899a00a5e2",
      "title": "Amazonite"
    }
  },
  "accessors": [
    {
      "type": "SCALAR",
      "componentType": 5123,
      "count": 126102,
      "bufferView": 0,
      "byteOffset": 0
    },
    {
      "type": "VEC3",
      "componentType": 5126,
      "count": 22133,
      "max": [
        1,
        0.7235938310623169,
        0.46391186118125916
      ],
      "min": [
        -1,
        -0.7235938310623169,
        -0.46391186118125916
      ],
      "bufferView": 1,
      "byteOffset": 0
    },
    {
      "type": "VEC2",
      "componentType": 5126,
      "count": 22133,
      "bufferView": 1,
      "byteOffset": 12
    }
  ],
  "bufferViews": [
    {
      "buffer": 0,
      "byteOffset": 0,
      "byteLength": 252204,
      "target": 34963
    },
    {
      "buffer": 0,
      "byteOffset": 252204,
      "byteLength": 442660,
      "byteStride": 20,
      "target": 34962
    }
  ],
  "samplers": [
    {
      "magFilter": 9729,
      "minFilter": 9987,
      "wrapS": 10497,
      "wrapT": 10497
    }
  ],
  "textures": [
    {
      "sampler": 0,
      "extensions": {
        "EXT_texture_webp": {
          "source": 0
        }
      }
    }
  ],
  "images": [
    {
      "mimeType": "image/webp",
      "uri": "baseColor.webp"
    }
  ],
  "buffers": [
    {
      "uri": "jungfrau-amazonite.bin",
      "byteLength": 694864
    }
  ],
  "materials": [
    {
      "name": "material_1",
      "doubleSided": true,
      "pbrMetallicRoughness": {
        "metallicFactor": 0,
        "baseColorTexture": {
          "index": 0
        }
      },
      "extensions": {
        "KHR_materials_unlit": {}
      }
    }
  ],
  "meshes": [
    {
      "name": "Object_0",
      "primitives": [
        {
          "attributes": {
            "POSITION": 1,
            "TEXCOORD_0": 2
          },
          "mode": 4,
          "material": 0,
          "indices": 0
        }
      ]
    }
  ],
  "nodes": [
    {
      "name": "Object_2",
      "translation": [
        0.0074070998820587874,
        -0.0033883846004840743,
        0.004310895274308279
      ],
      "rotation": [
        -0.7071067811865475,
        0,
        0,
        0.7071067811865476
      ],
      "scale": [
        0.08897246688481175,
        0.08897246688481175,
        0.08897246688481175
      ],
      "mesh": 0
    }
  ],
  "scenes": [
    {
      "name": "Sketchfab_Scene",
      "nodes": [
        0
      ]
    }
  ],
  "scene": 0,
  "extensionsUsed": [
    "EXT_texture_webp",
    "KHR_materials_unlit"
  ],
  "extensionsRequired": [
    "EXT_texture_webp"
  ]
}